<svg xmlns:xlink="http://www.w3.org/1999/xlink" width="2391" height="3378" xmlns="http://www.w3.org/2000/svg" viewBox="0 0 2391 3378" xmlns:ev="http://www.w3.org/2001/xml-events"><style type="text/css"><![CDATA[
.st2 {fill:#1f6391;font-family:宋体;font-size:16pt}
.st1 {fill:#303030;font-family:宋体;font-size:11pt}
.st3 {fill:#868686;font-family:宋体;font-size:11pt}
]]></style><defs><linearGradient y2="100%" x1="0%" id="lg1" x2="0%" y1="0%"><stop offset="0" stop-color="#fbfbfb"/><stop offset="1" stop-color="#efefef"/></linearGradient></defs><g id="page1" transform="translate(5,5)"><rect width="2381" stroke="#808080" height="3368" y="0" x="0" fill="#ffffff"/><path stroke="#6d6d6d" d="M0,0L-192.6,-1000.3" id="shape1" transform="translate(1177.18,1469.4)" fill="none"/><path stroke="#6d6d6d" d="M0,0L-10.7,0L-10.7,-198.9C-10.7,-203.7,-13.9,-206.9,-18.7,-206.9L-26.7,-206.9" id="shape2" transform="translate(840.62,469.13)" fill="none"/><path stroke="#6d6d6d" d="M0,0L-8.1,0L-8.1,-10.1C-8.1,-13.7,-10.5,-16.1,-14.1,-16.1L-20.2,-16.1" id="shape3" transform="translate(741.97,262.21)" fill="none"/><path stroke="#6d6d6d" d="M0,0L-8.1,0L-8.1,10.1C-8.1,13.7,-10.5,16.1,-14.1,16.1L-20.2,16.1" id="shape4" transform="translate(741.97,262.21)" fill="none"/><path stroke="#6d6d6d" d="M0,0L-10.7,0L-10.7,-150.5C-10.7,-155.3,-13.9,-158.5,-18.7,-158.5L-26.7,-158.5" id="shape5" transform="translate(840.62,469.13)" fill="none"/><path stroke="#6d6d6d" d="M0,0L-10,0C-10,0,-10,0,-10,0L-24.9,0" id="shape6" transform="translate(771.97,310.64)" fill="none"/><path stroke="#6d6d6d" d="M0,0L-10.7,0L-10.7,-85.9C-10.7,-90.7,-13.9,-93.9,-18.7,-93.9L-26.7,-93.9" id="shape7" transform="translate(840.62,469.13)" fill="none"/><path stroke="#6d6d6d" d="M0,0L-5.6,0L-5.6,-28.3C-5.6,-30.7,-7.2,-32.3,-9.6,-32.3L-13.9,-32.3" id="shape8" transform="translate(707.97,375.21)" fill="none"/><path stroke="#6d6d6d" d="M0,0L-5.6,0C-5.6,0,-5.6,0,-5.6,0L-13.9,0" id="shape9" transform="translate(707.97,375.21)" fill="none"/><path stroke="#6d6d6d" d="M0,0L-5.6,0L-5.6,28.3C-5.6,30.7,-7.2,32.3,-9.6,32.3L-13.9,32.3" id="shape10" transform="translate(707.97,375.21)" fill="none"/><path stroke="#6d6d6d" d="M0,0L-10.7,0L-10.7,-5.2C-10.7,-10,-13.9,-13.2,-18.7,-13.2L-26.7,-13.2" id="shape11" transform="translate(840.62,469.13)" fill="none"/><path stroke="#6d6d6d" d="M0,0L-8.1,0L-8.1,-10.1C-8.1,-13.7,-10.5,-16.1,-14.1,-16.1L-20.2,-16.1" id="shape12" transform="translate(741.97,455.92)" fill="none"/><path stroke="#6d6d6d" d="M0,0L-8.1,0L-8.1,10.1C-8.1,13.7,-10.5,16.1,-14.1,16.1L-20.2,16.1" id="shape13" transform="translate(741.97,455.92)" fill="none"/><path stroke="#6d6d6d" d="M0,0L-10.7,0L-10.7,43.4C-10.7,48.2,-13.9,51.4,-18.7,51.4L-26.7,51.4" id="shape14" transform="translate(840.62,469.13)" fill="none"/><path stroke="#6d6d6d" d="M0,0L-8.2,0L-8.2,-10.1C-8.2,-13.7,-10.6,-16.1,-14.2,-16.1L-20.4,-16.1" id="shape15" transform="translate(755.97,520.49)" fill="none"/><path stroke="#6d6d6d" d="M0,0L-8.2,0L-8.2,10.1C-8.2,13.7,-10.6,16.1,-14.2,16.1L-20.4,16.1" id="shape16" transform="translate(755.97,520.49)" fill="none"/><path stroke="#6d6d6d" d="M0,0L-10.7,0L-10.7,124.1C-10.7,128.9,-13.9,132.1,-18.7,132.1L-26.7,132.1" id="shape17" transform="translate(840.62,469.13)" fill="none"/><path stroke="#6d6d6d" d="M0,0L-10,0L-10,-25.3C-10,-29.5,-12.8,-32.3,-17,-32.3L-24.9,-32.3" id="shape18" transform="translate(771.97,601.2)" fill="none"/><path stroke="#6d6d6d" d="M0,0L-10,0C-10,0,-10,0,-10,0L-24.9,0" id="shape19" transform="translate(771.97,601.2)" fill="none"/><path stroke="#6d6d6d" d="M0,0L-10,0L-10,25.3C-10,29.5,-12.8,32.3,-17,32.3L-24.9,32.3" id="shape20" transform="translate(771.97,601.2)" fill="none"/><path stroke="#6d6d6d" d="M0,0L10.7,0L10.7,-69.8C10.7,-74.6,13.9,-77.8,18.7,-77.8L26.7,-77.8" id="shape21" transform="translate(1453.73,463.37)" fill="none"/><path stroke="#6d6d6d" d="M0,0L10.7,0L10.7,-21.4C10.7,-26.2,13.9,-29.4,18.7,-29.4L26.7,-29.4" id="shape22" transform="translate(1453.73,463.37)" fill="none"/><path stroke="#6d6d6d" d="M0,0L5.6,0L5.6,-12.1C5.6,-14.5,7.2,-16.1,9.6,-16.1L14.1,-16.1" id="shape23" transform="translate(1572.43,434.01)" fill="none"/><path stroke="#6d6d6d" d="M0,0L5.6,0L5.6,12.1C5.6,14.5,7.2,16.1,9.6,16.1L14.1,16.1" id="shape24" transform="translate(1572.43,434.01)" fill="none"/><path stroke="#6d6d6d" d="M0,0L10.7,0L10.7,91.8C10.7,96.6,13.9,99.8,18.7,99.8L26.7,99.8" id="shape25" transform="translate(1453.73,463.37)" fill="none"/><path stroke="#6d6d6d" d="M0,0L8.1,0L8.1,-74.7C8.1,-78.3,10.5,-80.7,14.1,-80.7L20.2,-80.7" id="shape26" transform="translate(1552.43,563.15)" fill="none"/><path stroke="#6d6d6d" d="M0,0L8.1,0L8.1,-42.4C8.1,-46,10.5,-48.4,14.1,-48.4L20.2,-48.4" id="shape27" transform="translate(1552.43,563.15)" fill="none"/><path stroke="#6d6d6d" d="M0,0L8.1,0L8.1,-10.1C8.1,-13.7,10.5,-16.1,14.1,-16.1L20.2,-16.1" id="shape28" transform="translate(1552.43,563.15)" fill="none"/><path stroke="#6d6d6d" d="M0,0L8.1,0L8.1,10.1C8.1,13.7,10.5,16.1,14.1,16.1L20.2,16.1" id="shape29" transform="translate(1552.43,563.15)" fill="none"/><path stroke="#6d6d6d" d="M0,0L8.1,0L8.1,42.4C8.1,46,10.5,48.4,14.1,48.4L20.2,48.4" id="shape30" transform="translate(1552.43,563.15)" fill="none"/><path stroke="#6d6d6d" d="M0,0L8.1,0L8.1,74.7C8.1,78.3,10.5,80.7,14.1,80.7L20.2,80.7" id="shape31" transform="translate(1552.43,563.15)" fill="none"/><path stroke="#6d6d6d" d="M0,0L192.6,-421.4" id="shape32" transform="translate(1177.18,1469.4)" fill="none"/><path stroke="#6d6d6d" d="M0,0L10.7,0L10.7,-352.3C10.7,-357.1,13.9,-360.3,18.7,-360.3L26.7,-360.3" id="shape33" transform="translate(1423.73,1047.96)" fill="none"/><path stroke="#6d6d6d" d="M0,0L10.7,0L10.7,-239.3C10.7,-244.1,13.9,-247.3,18.7,-247.3L26.7,-247.3" id="shape34" transform="translate(1423.73,1047.96)" fill="none"/><path stroke="#6d6d6d" d="M0,0L10,0L10,-9.1C10,-13.3,12.8,-16.1,17,-16.1L24.9,-16.1" id="shape35" transform="translate(1492.45,800.68)" fill="none"/><path stroke="#6d6d6d" d="M0,0L10,0L10,9.1C10,13.3,12.8,16.1,17,16.1L24.9,16.1" id="shape36" transform="translate(1492.45,800.68)" fill="none"/><path stroke="#6d6d6d" d="M0,0L5.3,0C5.3,0,5.3,0,5.3,0L13.3,0" id="shape37" transform="translate(1612.45,687.68)" fill="none"/><path stroke="#6d6d6d" d="M0,0L2.6,0C2.6,0,2.6,0,2.6,0L6.4,0" id="shape38" transform="translate(1863.71,687.68)" fill="none"/><path stroke="#6d6d6d" d="M0,0L10.7,0L10.7,-303.9C10.7,-308.7,13.9,-311.9,18.7,-311.9L26.7,-311.9" id="shape39" transform="translate(1423.73,1047.96)" fill="none"/><path stroke="#6d6d6d" d="M0,0L6,0L6,-11.1C6,-14.1,8,-16.1,11,-16.1L15,-16.1" id="shape40" transform="translate(1548.45,736.11)" fill="none"/><path stroke="#6d6d6d" d="M0,0L6,0L6,11.1C6,14.1,8,16.1,11,16.1L15,16.1" id="shape41" transform="translate(1548.45,736.11)" fill="none"/><path stroke="#6d6d6d" d="M0,0L10.7,0L10.7,-158.6C10.7,-163.4,13.9,-166.6,18.7,-166.6L26.7,-166.6" id="shape42" transform="translate(1423.73,1047.96)" fill="none"/><path stroke="#6d6d6d" d="M0,0L8.2,0L8.2,-26.3C8.2,-29.9,10.6,-32.3,14.2,-32.3L20.4,-32.3" id="shape43" transform="translate(1508.45,881.39)" fill="none"/><path stroke="#6d6d6d" d="M0,0L8.2,0C8.2,0,8.2,0,8.2,0L20.4,0" id="shape44" transform="translate(1508.45,881.39)" fill="none"/><path stroke="#6d6d6d" d="M0,0L8.2,0L8.2,26.3C8.2,29.9,10.6,32.3,14.2,32.3L20.4,32.3" id="shape45" transform="translate(1508.45,881.39)" fill="none"/><path stroke="#6d6d6d" d="M0,0L-10.7,0L-10.7,220.9C-10.7,225.7,-13.9,228.9,-18.7,228.9L-26.7,228.9" id="shape46" transform="translate(840.62,469.13)" fill="none"/><path stroke="#6d6d6d" d="M0,0L-7.2,0L-7.2,-26.3C-7.2,-29.9,-9.6,-32.3,-13.2,-32.3L-18.1,-32.3" id="shape47" transform="translate(725.97,698.06)" fill="none"/><path stroke="#6d6d6d" d="M0,0L-7.2,0C-7.2,0,-7.2,0,-7.2,0L-18.1,0" id="shape48" transform="translate(725.97,698.06)" fill="none"/><path stroke="#6d6d6d" d="M0,0L-7.2,0L-7.2,26.3C-7.2,29.9,-9.6,32.3,-13.2,32.3L-18.1,32.3" id="shape49" transform="translate(725.97,698.06)" fill="none"/><path stroke="#6d6d6d" d="M0,0L10.7,0L10.7,51.4C10.7,56.2,13.9,59.4,18.7,59.4L26.7,59.4" id="shape50" transform="translate(1423.73,1047.97)" fill="none"/><path stroke="#6d6d6d" d="M0,0L6.5,0L6.5,-156.4C6.5,-159.4,8.5,-161.4,11.5,-161.4L16.2,-161.4" id="shape51" transform="translate(1526.45,1107.39)" fill="none"/><path stroke="#6d6d6d" d="M0,0L6.5,0L6.5,-43.4C6.5,-46.4,8.5,-48.4,11.5,-48.4L16.2,-48.4" id="shape52" transform="translate(1526.45,1107.39)" fill="none"/><path stroke="#6d6d6d" d="M0,0L12,0L12,-71.7C12,-77.1,15.6,-80.7,21,-80.7L29.9,-80.7" id="shape53" transform="translate(1632.69,1058.97)" fill="none"/><path stroke="#6d6d6d" d="M0,0L12,0L12,-39.4C12,-44.8,15.6,-48.4,21,-48.4L29.9,-48.4" id="shape54" transform="translate(1632.69,1058.96)" fill="none"/><path stroke="#6d6d6d" d="M0,0L12,0L12,-7.1C12,-12.5,15.6,-16.1,21,-16.1L29.9,-16.1" id="shape55" transform="translate(1632.69,1058.96)" fill="none"/><path stroke="#6d6d6d" d="M0,0L12,0L12,7.1C12,12.5,15.6,16.1,21,16.1L29.9,16.1" id="shape56" transform="translate(1632.69,1058.96)" fill="none"/><path stroke="#6d6d6d" d="M0,0L12,0L12,39.4C12,44.8,15.6,48.4,21,48.4L29.9,48.4" id="shape57" transform="translate(1632.69,1058.97)" fill="none"/><path stroke="#6d6d6d" d="M0,0L6.5,0L6.5,75.7C6.5,78.7,8.5,80.7,11.5,80.7L16.2,80.7" id="shape58" transform="translate(1526.45,1107.38)" fill="none"/><path stroke="#6d6d6d" d="M0,0L11.1,0L11.1,-8.1C11.1,-12.9,14.3,-16.1,19.1,-16.1L27.8,-16.1" id="shape59" transform="translate(1648.69,1188.1)" fill="none"/><path stroke="#6d6d6d" d="M0,0L11.1,0L11.1,8.1C11.1,12.9,14.3,16.1,19.1,16.1L27.8,16.1" id="shape60" transform="translate(1648.69,1188.1)" fill="none"/><path stroke="#6d6d6d" d="M0,0L6.5,0L6.5,156.4C6.5,159.4,8.5,161.4,11.5,161.4L16.2,161.4" id="shape61" transform="translate(1526.45,1107.39)" fill="none"/><path stroke="#6d6d6d" d="M0,0L11.1,0L11.1,-24.3C11.1,-29.1,14.3,-32.3,19.1,-32.3L27.8,-32.3" id="shape62" transform="translate(1648.69,1268.81)" fill="none"/><path stroke="#6d6d6d" d="M0,0L11.1,0C11.1,0,11.1,0,11.1,0L27.8,0" id="shape63" transform="translate(1648.69,1268.81)" fill="none"/><path stroke="#6d6d6d" d="M0,0L11.1,0L11.1,24.3C11.1,29.1,14.3,32.3,19.1,32.3L27.8,32.3" id="shape64" transform="translate(1648.69,1268.82)" fill="none"/><path stroke="#6d6d6d" d="M0,0L10.7,0L10.7,374.3C10.7,379.1,13.9,382.3,18.7,382.3L26.7,382.3" id="shape65" transform="translate(1423.73,1047.96)" fill="none"/><path stroke="#6d6d6d" d="M0,0L7.2,0L7.2,-90.9C7.2,-94.5,9.6,-96.9,13.2,-96.9L17.9,-96.9" id="shape66" transform="translate(1552.45,1430.24)" fill="none"/><path stroke="#6d6d6d" d="M0,0L7.2,0L7.2,-58.6C7.2,-62.2,9.6,-64.6,13.2,-64.6L17.9,-64.6" id="shape67" transform="translate(1552.45,1430.25)" fill="none"/><path stroke="#6d6d6d" d="M0,0L7.2,0L7.2,-26.3C7.2,-29.9,9.6,-32.3,13.2,-32.3L17.9,-32.3" id="shape68" transform="translate(1552.45,1430.24)" fill="none"/><path stroke="#6d6d6d" d="M0,0L7.2,0C7.2,0,7.2,0,7.2,0L17.9,0" id="shape69" transform="translate(1552.45,1430.24)" fill="none"/><path stroke="#6d6d6d" d="M0,0L7.2,0L7.2,26.3C7.2,29.9,9.6,32.3,13.2,32.3L17.9,32.3" id="shape70" transform="translate(1552.45,1430.24)" fill="none"/><path stroke="#6d6d6d" d="M0,0L7.2,0L7.2,58.6C7.2,62.2,9.6,64.6,13.2,64.6L17.9,64.6" id="shape71" transform="translate(1552.45,1430.25)" fill="none"/><path stroke="#6d6d6d" d="M0,0L7.2,0L7.2,90.9C7.2,94.5,9.6,96.9,13.2,96.9L17.9,96.9" id="shape72" transform="translate(1552.45,1430.24)" fill="none"/><path stroke="#6d6d6d" d="M0,0L192.6,195.4" id="shape73" transform="translate(1177.18,1469.4)" fill="none"/><path stroke="#6d6d6d" d="M0,0L10.2,0L10.2,-69.8C10.2,-74.6,13.4,-77.8,18.2,-77.8L25.4,-77.8" id="shape74" transform="translate(1475.74,1664.84)" fill="none"/><path stroke="#6d6d6d" d="M0,0L8.1,0L8.1,-10.1C8.1,-13.7,10.5,-16.1,14.1,-16.1L20.2,-16.1" id="shape75" transform="translate(1573.18,1587.05)" fill="none"/><path stroke="#6d6d6d" d="M0,0L8.1,0L8.1,10.1C8.1,13.7,10.5,16.1,14.1,16.1L20.2,16.1" id="shape76" transform="translate(1573.18,1587.06)" fill="none"/><path stroke="#6d6d6d" d="M0,0L10.2,0L10.2,91.8C10.2,96.6,13.4,99.8,18.2,99.8L25.4,99.8" id="shape77" transform="translate(1475.74,1664.84)" fill="none"/><path stroke="#6d6d6d" d="M0,0L8.1,0L8.1,-26.3C8.1,-29.9,10.5,-32.3,14.1,-32.3L20.2,-32.3" id="shape78" transform="translate(1573.18,1764.62)" fill="none"/><path stroke="#6d6d6d" d="M0,0L8.1,0C8.1,0,8.1,0,8.1,0L20.2,0" id="shape79" transform="translate(1573.18,1764.62)" fill="none"/><path stroke="#6d6d6d" d="M0,0L8.1,0L8.1,26.3C8.1,29.9,10.5,32.3,14.1,32.3L20.2,32.3" id="shape80" transform="translate(1573.18,1764.62)" fill="none"/><path stroke="#6d6d6d" d="M0,0L10.2,0C10.2,1.7,11.4,2.9,13.2,2.9L25.4,2.9" id="shape81" transform="translate(1475.74,1664.84)" fill="none"/><path stroke="#6d6d6d" d="M0,0L8.2,0L8.2,-26.3C8.2,-29.9,10.6,-32.3,14.2,-32.3L20.4,-32.3" id="shape82" transform="translate(1559.19,1667.77)" fill="none"/><path stroke="#6d6d6d" d="M0,0L8.2,0C8.2,0,8.2,0,8.2,0L20.4,0" id="shape83" transform="translate(1559.19,1667.77)" fill="none"/><path stroke="#6d6d6d" d="M0,0L8.2,0L8.2,26.3C8.2,29.9,10.6,32.3,14.2,32.3L20.4,32.3" id="shape84" transform="translate(1559.19,1667.77)" fill="none"/><path stroke="#6d6d6d" d="M0,0L12,0L12,71.7C12,77.1,15.6,80.7,21,80.7L29.9,80.7" id="shape85" transform="translate(1632.69,1058.96)" fill="none"/><path stroke="#6d6d6d" d="M0,0L-10.7,0L-10.7,-162.6C-10.7,-167.4,-13.9,-170.6,-18.7,-170.6L-26.7,-170.6" id="shape86" transform="translate(900.62,1001.26)" fill="none"/><path stroke="#6d6d6d" d="M0,0L-6.1,0L-6.1,-51.5C-6.1,-54.5,-8.1,-56.5,-11.1,-56.5L-15.2,-56.5" id="shape87" transform="translate(789.93,830.66)" fill="none"/><path stroke="#6d6d6d" d="M0,0L-6.1,0L-6.1,51.5C-6.1,54.5,-8.1,56.5,-11.1,56.5L-15.2,56.5" id="shape88" transform="translate(789.93,830.66)" fill="none"/><path stroke="#6d6d6d" d="M0,0L-6.1,0L-6.1,-43.4C-6.1,-46.4,-8.1,-48.4,-11.1,-48.4L-15.2,-48.4" id="shape89" transform="translate(690.77,887.16)" fill="none"/><path stroke="#6d6d6d" d="M0,0L-6.1,0L-6.1,43.4C-6.1,46.4,-8.1,48.4,-11.1,48.4L-15.2,48.4" id="shape90" transform="translate(690.77,887.16)" fill="none"/><path stroke="#6d6d6d" d="M0,0L-7.8,0C-7.8,0,-7.8,0,-7.8,0L-19.5,0" id="shape91" transform="translate(722.77,774.16)" fill="none"/><path stroke="#6d6d6d" d="M0,0L-5.2,0L-5.2,-28.3C-5.2,-30.7,-6.8,-32.3,-9.2,-32.3L-13,-32.3" id="shape92" transform="translate(575.6,838.73)" fill="none"/><path stroke="#6d6d6d" d="M0,0L-5.2,0C-5.2,0,-5.2,0,-5.2,0L-13,0" id="shape93" transform="translate(575.6,838.73)" fill="none"/><path stroke="#6d6d6d" d="M0,0L-5.2,0L-5.2,28.3C-5.2,30.7,-6.8,32.3,-9.2,32.3L-13,32.3" id="shape94" transform="translate(575.6,838.73)" fill="none"/><path stroke="#6d6d6d" d="M0,0L-3,0L-3,-29.3C-3,-31.1,-4.2,-32.3,-6,-32.3L-7.6,-32.3" id="shape95" transform="translate(535.6,935.59)" fill="none"/><path stroke="#6d6d6d" d="M0,0L-3,0L-3,29.3C-3,31.1,-4.2,32.3,-6,32.3L-7.6,32.3" id="shape96" transform="translate(535.6,935.59)" fill="none"/><path stroke="#6d6d6d" d="M0,0L-3,0C-3,0,-3,0,-3,0L-7.6,0" id="shape97" transform="translate(535.6,935.59)" fill="none"/><path stroke="#6d6d6d" d="M0,0L-10.7,0L-10.7,39.3C-10.7,44.1,-13.9,47.3,-18.7,47.3L-26.7,47.3" id="shape98" transform="translate(900.62,1001.26)" fill="none"/><path stroke="#6d6d6d" d="M0,0L-5.4,0L-5.4,-44.4C-5.4,-46.8,-7,-48.4,-9.4,-48.4L-13.4,-48.4" id="shape99" transform="translate(725.93,1048.58)" fill="none"/><path stroke="#6d6d6d" d="M0,0L-5.4,0L-5.4,-12.1C-5.4,-14.5,-7,-16.1,-9.4,-16.1L-13.4,-16.1" id="shape100" transform="translate(725.93,1048.58)" fill="none"/><path stroke="#6d6d6d" d="M0,0L-5.4,0L-5.4,12.1C-5.4,14.5,-7,16.1,-9.4,16.1L-13.4,16.1" id="shape101" transform="translate(725.93,1048.58)" fill="none"/><path stroke="#6d6d6d" d="M0,0L-5.4,0L-5.4,44.4C-5.4,46.8,-7,48.4,-9.4,48.4L-13.4,48.4" id="shape102" transform="translate(725.93,1048.59)" fill="none"/><path stroke="#6d6d6d" d="M0,0L-10.7,0L-10.7,184.6C-10.7,189.4,-13.9,192.6,-18.7,192.6L-26.7,192.6" id="shape103" transform="translate(900.62,1001.26)" fill="none"/><path stroke="#6d6d6d" d="M0,0L-8.1,0L-8.1,-58.6C-8.1,-62.2,-10.5,-64.6,-14.1,-64.6L-20.2,-64.6" id="shape104" transform="translate(801.93,1193.86)" fill="none"/><path stroke="#6d6d6d" d="M0,0L-8.1,0L-8.1,-26.3C-8.1,-29.9,-10.5,-32.3,-14.1,-32.3L-20.2,-32.3" id="shape105" transform="translate(801.93,1193.86)" fill="none"/><path stroke="#6d6d6d" d="M0,0L-8.1,0C-8.1,0,-8.1,0,-8.1,0L-20.2,0" id="shape106" transform="translate(801.93,1193.87)" fill="none"/><path stroke="#6d6d6d" d="M0,0L-8.1,0L-8.1,26.3C-8.1,29.9,-10.5,32.3,-14.1,32.3L-20.2,32.3" id="shape107" transform="translate(801.93,1193.87)" fill="none"/><path stroke="#6d6d6d" d="M0,0L-8.1,0L-8.1,58.6C-8.1,62.2,-10.5,64.6,-14.1,64.6L-20.2,64.6" id="shape108" transform="translate(801.93,1193.87)" fill="none"/><path stroke="#6d6d6d" d="M0,0L192.6,985.3" id="shape109" transform="translate(1177.18,1469.4)" fill="none"/><path stroke="#6d6d6d" d="M0,0L10.7,0L10.7,3C10.7,7.8,13.9,11,18.7,11L26.7,11" id="shape110" transform="translate(1483.73,2454.67)" fill="none"/><path stroke="#6d6d6d" d="M0,0L7.2,0L7.2,-26.3C7.2,-29.9,9.6,-32.3,13.2,-32.3L17.9,-32.3" id="shape111" transform="translate(1612.41,2465.67)" fill="none"/><path stroke="#6d6d6d" d="M0,0L7.2,0C7.2,0,7.2,0,7.2,0L17.9,0" id="shape112" transform="translate(1612.41,2465.67)" fill="none"/><path stroke="#6d6d6d" d="M0,0L7.2,0L7.2,26.3C7.2,29.9,9.6,32.3,13.2,32.3L17.9,32.3" id="shape113" transform="translate(1612.41,2465.68)" fill="none"/><path stroke="#6d6d6d" d="M0,0L192.6,642.8" id="shape114" transform="translate(1177.18,1469.4)" fill="none"/><path stroke="#6d6d6d" d="M0,0L10.2,0L10.2,-247.4C10.2,-252.2,13.4,-255.4,18.2,-255.4L25.5,-255.4" id="shape115" transform="translate(1415.74,2112.22)" fill="none"/><path stroke="#6d6d6d" d="M0,0L6.3,0L6.3,-11.1C6.3,-14.1,8.3,-16.1,11.3,-16.1L15.8,-16.1" id="shape116" transform="translate(1559.22,1856.87)" fill="none"/><path stroke="#6d6d6d" d="M0,0L6.3,0L6.3,11.1C6.3,14.1,8.3,16.1,11.3,16.1L15.8,16.1" id="shape117" transform="translate(1559.22,1856.87)" fill="none"/><path stroke="#6d6d6d" d="M0,0L10.2,0L10.2,-182.8C10.2,-187.6,13.4,-190.8,18.2,-190.8L25.5,-190.8" id="shape118" transform="translate(1415.74,2112.22)" fill="none"/><path stroke="#6d6d6d" d="M0,0L8.2,0L8.2,-10.1C8.2,-13.7,10.6,-16.1,14.2,-16.1L20.4,-16.1" id="shape119" transform="translate(1499.23,1921.44)" fill="none"/><path stroke="#6d6d6d" d="M0,0L8.2,0L8.2,10.1C8.2,13.7,10.6,16.1,14.2,16.1L20.4,16.1" id="shape120" transform="translate(1499.23,1921.44)" fill="none"/><path stroke="#6d6d6d" d="M0,0L10.2,0L10.2,-134.4C10.2,-139.2,13.4,-142.4,18.2,-142.4L25.5,-142.4" id="shape121" transform="translate(1415.74,2112.22)" fill="none"/><path stroke="#6d6d6d" d="M0,0L10.2,0L10.2,-102.1C10.2,-106.9,13.4,-110.1,18.2,-110.1L25.5,-110.1" id="shape122" transform="translate(1415.74,2112.21)" fill="none"/><path stroke="#6d6d6d" d="M0,0L5.6,0C5.6,0,5.6,0,5.6,0L14.1,0" id="shape123" transform="translate(1533.22,1969.87)" fill="none"/><path stroke="#6d6d6d" d="M0,0L8.8,0C8.8,0,8.8,0,8.8,0L22.1,0" id="shape124" transform="translate(1525.22,2002.15)" fill="none"/><path stroke="#6d6d6d" d="M0,0L10.2,0L10.2,11.1C10.2,15.9,13.4,19.1,18.2,19.1L25.5,19.1" id="shape125" transform="translate(1415.74,2112.21)" fill="none"/><path stroke="#6d6d6d" d="M0,0L5.6,0C5.6,0,5.6,0,5.6,0L14.1,0" id="shape126" transform="translate(1533.22,2131.29)" fill="none"/><path stroke="#6d6d6d" d="M0,0L10.2,0L10.2,-69.8C10.2,-74.6,13.4,-77.8,18.2,-77.8L25.5,-77.8" id="shape127" transform="translate(1415.74,2112.22)" fill="none"/><path stroke="#6d6d6d" d="M0,0L15.2,0C15.2,0,15.2,0,15.2,0L38.1,0" id="shape128" transform="translate(1509.22,2034.44)" fill="none"/><path stroke="#6d6d6d" d="M0,0L10.2,0L10.2,107.9C10.2,112.7,13.4,115.9,18.2,115.9L25.5,115.9" id="shape129" transform="translate(1415.74,2112.22)" fill="none"/><path stroke="#6d6d6d" d="M0,0L15.2,0C15.2,0,15.2,0,15.2,0L38.1,0" id="shape130" transform="translate(1509.22,2228.15)" fill="none"/><path stroke="#6d6d6d" d="M0,0L10.2,0L10.2,-37.5C10.2,-42.3,13.4,-45.5,18.2,-45.5L25.5,-45.5" id="shape131" transform="translate(1415.74,2112.22)" fill="none"/><path stroke="#6d6d6d" d="M0,0L15.2,0C15.2,0,15.2,0,15.2,0L38.1,0" id="shape132" transform="translate(1509.22,2066.72)" fill="none"/><path stroke="#6d6d6d" d="M0,0L10.2,0L10.2,140.2C10.2,145,13.4,148.2,18.2,148.2L25.5,148.2" id="shape133" transform="translate(1415.74,2112.21)" fill="none"/><path stroke="#6d6d6d" d="M0,0L-4,0C-4,0,-4,0,-4,0L-9.9,0" id="shape134" transform="translate(1557.22,2260.43)" fill="none"/><path stroke="#6d6d6d" d="M0,0L10.2,0L10.2,-5.2C10.2,-10,13.4,-13.2,18.2,-13.2L25.5,-13.2" id="shape135" transform="translate(1415.74,2112.22)" fill="none"/><path stroke="#6d6d6d" d="M0,0L-4,0C-4,0,-4,0,-4,0L-9.9,0" id="shape136" transform="translate(1557.22,2099.01)" fill="none"/><path stroke="#6d6d6d" d="M0,0L10.2,0L10.2,43.4C10.2,48.2,13.4,51.4,18.2,51.4L25.5,51.4" id="shape137" transform="translate(1415.74,2112.22)" fill="none"/><path stroke="#6d6d6d" d="M0,0L15.2,0C15.2,0,15.2,0,15.2,0L38.1,0" id="shape138" transform="translate(1509.22,2163.57)" fill="none"/><path stroke="#6d6d6d" d="M0,0L10.2,0L10.2,75.6C10.2,80.4,13.4,83.6,18.2,83.6L25.5,83.6" id="shape139" transform="translate(1415.74,2112.22)" fill="none"/><path stroke="#6d6d6d" d="M0,0L15.2,0C15.2,0,15.2,0,15.2,0L38.1,0" id="shape140" transform="translate(1509.22,2195.86)" fill="none"/><path stroke="#6d6d6d" d="M0,0L10.2,0L10.2,172.5C10.2,177.3,13.4,180.5,18.2,180.5L25.5,180.5" id="shape141" transform="translate(1415.74,2112.22)" fill="none"/><path stroke="#6d6d6d" d="M0,0L15.2,0C15.2,0,15.2,0,15.2,0L38.1,0" id="shape142" transform="translate(1509.22,2292.72)" fill="none"/><path stroke="#6d6d6d" d="M0,0L10.2,0L10.2,204.8C10.2,209.6,13.4,212.8,18.2,212.8L25.5,212.8" id="shape143" transform="translate(1415.74,2112.22)" fill="none"/><path stroke="#6d6d6d" d="M0,0L-4,0C-4,0,-4,0,-4,0L-9.9,0" id="shape144" transform="translate(1557.22,2325)" fill="none"/><path stroke="#6d6d6d" d="M0,0L10.2,0L10.2,237.1C10.2,241.9,13.4,245.1,18.2,245.1L25.5,245.1" id="shape145" transform="translate(1415.74,2112.22)" fill="none"/><path stroke="#6d6d6d" d="M0,0L2.4,0C2.4,0,2.4,0,2.4,0L6.1,0" id="shape146" transform="translate(1541.22,2357.29)" fill="none"/><path stroke="#6d6d6d" d="M0,0L10.2,0L10.2,269.4C10.2,274.2,13.4,277.4,18.2,277.4L25.5,277.4" id="shape147" transform="translate(1415.74,2112.21)" fill="none"/><path stroke="#6d6d6d" d="M0,0L-10.4,0C-10.4,0,-10.4,0,-10.4,0L-25.9,0" id="shape148" transform="translate(1573.22,2389.57)" fill="none"/><path stroke="#6d6d6d" d="M0,0L-10.3,0L-10.3,-546C-10.3,-550.8,-13.5,-554,-18.3,-554L-25.6,-554" id="shape149" transform="translate(922.62,1920.82)" fill="none"/><path stroke="#6d6d6d" d="M0,0L-7.2,0L-7.2,-58.6C-7.2,-62.2,-9.6,-64.6,-13.2,-64.6L-18.1,-64.6" id="shape150" transform="translate(808.99,1366.82)" fill="none"/><path stroke="#6d6d6d" d="M0,0L-7.2,0C-7.2,0,-7.2,0,-7.2,0L-18.1,0" id="shape151" transform="translate(702.91,1302.25)" fill="none"/><path stroke="#6d6d6d" d="M0,0L-7.2,0L-7.2,-26.3C-7.2,-29.9,-9.6,-32.3,-13.2,-32.3L-18.1,-32.3" id="shape152" transform="translate(808.99,1366.82)" fill="none"/><path stroke="#6d6d6d" d="M0,0L-7.2,0C-7.2,0,-7.2,0,-7.2,0L-18.1,0" id="shape153" transform="translate(702.91,1334.54)" fill="none"/><path stroke="#6d6d6d" d="M0,0L-7.2,0C-7.2,0,-7.2,0,-7.2,0L-18.1,0" id="shape154" transform="translate(808.99,1366.82)" fill="none"/><path stroke="#6d6d6d" d="M0,0L-13.6,0C-13.6,0,-13.6,0,-13.6,0L-34.1,0" id="shape155" transform="translate(718.91,1366.82)" fill="none"/><path stroke="#6d6d6d" d="M0,0L-7.2,0L-7.2,26.3C-7.2,29.9,-9.6,32.3,-13.2,32.3L-18.1,32.3" id="shape156" transform="translate(808.99,1366.83)" fill="none"/><path stroke="#6d6d6d" d="M0,0L-13.6,0C-13.6,0,-13.6,0,-13.6,0L-34.1,0" id="shape157" transform="translate(718.91,1399.11)" fill="none"/><path stroke="#6d6d6d" d="M0,0L-7.2,0L-7.2,58.6C-7.2,62.2,-9.6,64.6,-13.2,64.6L-18.1,64.6" id="shape158" transform="translate(808.99,1366.83)" fill="none"/><path stroke="#6d6d6d" d="M0,0L-7.2,0C-7.2,0,-7.2,0,-7.2,0L-18.1,0" id="shape159" transform="translate(702.91,1431.39)" fill="none"/><path stroke="#6d6d6d" d="M0,0L-8.2,0L-8.2,-10.1C-8.2,-13.7,-10.6,-16.1,-14.2,-16.1L-20.4,-16.1" id="shape160" transform="translate(772.11,1479.82)" fill="none"/><path stroke="#6d6d6d" d="M0,0L-8.2,0L-8.2,10.1C-8.2,13.7,-10.6,16.1,-14.2,16.1L-20.4,16.1" id="shape161" transform="translate(772.11,1479.82)" fill="none"/><path stroke="#6d6d6d" d="M0,0L-8.1,0L-8.1,-10.1C-8.1,-13.7,-10.5,-16.1,-14.1,-16.1L-20.2,-16.1" id="shape162" transform="translate(758.11,1544.39)" fill="none"/><path stroke="#6d6d6d" d="M0,0L-8.1,0L-8.1,10.1C-8.1,13.7,-10.5,16.1,-14.1,16.1L-20.2,16.1" id="shape163" transform="translate(758.11,1544.39)" fill="none"/><path stroke="#6d6d6d" d="M0,0L-10,0L-10,-202.9C-10,-207.1,-12.8,-209.9,-17,-209.9L-24.9,-209.9" id="shape164" transform="translate(854.99,1754.25)" fill="none"/><path stroke="#6d6d6d" d="M0,0L-10,0L-10,-267.4C-10,-271.6,-12.8,-274.4,-17,-274.4L-24.9,-274.4" id="shape165" transform="translate(854.99,1754.24)" fill="none"/><path stroke="#6d6d6d" d="M0,0L-10.3,0L-10.3,-158.6C-10.3,-163.4,-13.5,-166.6,-18.3,-166.6L-25.6,-166.6" id="shape166" transform="translate(922.62,1920.81)" fill="none"/><path stroke="#6d6d6d" d="M0,0L-10,0L-10,-122.1C-10,-126.3,-12.8,-129.1,-17,-129.1L-24.9,-129.1" id="shape167" transform="translate(854.99,1754.25)" fill="none"/><path stroke="#6d6d6d" d="M0,0L-3,0L-3,-29.3C-3,-31.1,-4.2,-32.3,-6,-32.3L-7.4,-32.3" id="shape168" transform="translate(676.11,1625.1)" fill="none"/><path stroke="#6d6d6d" d="M0,0L-3,0C-3,0,-3,0,-3,0L-7.4,0" id="shape169" transform="translate(676.11,1625.1)" fill="none"/><path stroke="#6d6d6d" d="M0,0L-3,0L-3,29.3C-3,31.1,-4.2,32.3,-6,32.3L-7.4,32.3" id="shape170" transform="translate(676.11,1625.11)" fill="none"/><path stroke="#6d6d6d" d="M0,0L-10,0L-10,-57.6C-10,-61.8,-12.8,-64.6,-17,-64.6L-24.9,-64.6" id="shape171" transform="translate(854.99,1754.25)" fill="none"/><path stroke="#6d6d6d" d="M0,0L-8.1,0C-8.1,0,-8.1,0,-8.1,0L-20.2,0" id="shape172" transform="translate(758.11,1689.67)" fill="none"/><path stroke="#6d6d6d" d="M0,0L-10,0L-10,9.1C-10,13.3,-12.8,16.1,-17,16.1L-24.9,16.1" id="shape173" transform="translate(854.99,1754.25)" fill="none"/><path stroke="#6d6d6d" d="M0,0L-5.6,0L-5.6,-44.4C-5.6,-46.8,-7.2,-48.4,-9.6,-48.4L-14.1,-48.4" id="shape174" transform="translate(738.11,1770.38)" fill="none"/><path stroke="#6d6d6d" d="M0,0L-5.6,0L-5.6,-12.1C-5.6,-14.5,-7.2,-16.1,-9.6,-16.1L-14.1,-16.1" id="shape175" transform="translate(738.11,1770.39)" fill="none"/><path stroke="#6d6d6d" d="M0,0L-5.6,0L-5.6,12.1C-5.6,14.5,-7.2,16.1,-9.6,16.1L-14.1,16.1" id="shape176" transform="translate(738.11,1770.39)" fill="none"/><path stroke="#6d6d6d" d="M0,0L-5.6,0L-5.6,44.4C-5.6,46.8,-7.2,48.4,-9.6,48.4L-14.1,48.4" id="shape177" transform="translate(738.11,1770.39)" fill="none"/><path stroke="#6d6d6d" d="M0,0L-10,0L-10,106C-10,110.2,-12.8,113,-17,113L-24.9,113" id="shape178" transform="translate(854.99,1754.24)" fill="none"/><path stroke="#6d6d6d" d="M0,0L-8.2,0L-8.2,-10.1C-8.2,-13.7,-10.6,-16.1,-14.2,-16.1L-20.4,-16.1" id="shape179" transform="translate(772.11,1867.24)" fill="none"/><path stroke="#6d6d6d" d="M0,0L-8.2,0L-8.2,10.1C-8.2,13.7,-10.6,16.1,-14.2,16.1L-20.4,16.1" id="shape180" transform="translate(772.11,1867.24)" fill="none"/><path stroke="#6d6d6d" d="M0,0L-10,0L-10,186.7C-10,190.9,-12.8,193.7,-17,193.7L-24.9,193.7" id="shape181" transform="translate(854.99,1754.25)" fill="none"/><path stroke="#6d6d6d" d="M0,0L-7.2,0L-7.2,-26.3C-7.2,-29.9,-9.6,-32.3,-13.2,-32.3L-17.9,-32.3" id="shape182" transform="translate(728.11,1947.95)" fill="none"/><path stroke="#6d6d6d" d="M0,0L-7.2,0C-7.2,0,-7.2,0,-7.2,0L-17.9,0" id="shape183" transform="translate(728.11,1947.96)" fill="none"/><path stroke="#6d6d6d" d="M0,0L-7.2,0L-7.2,26.3C-7.2,29.9,-9.6,32.3,-13.2,32.3L-17.9,32.3" id="shape184" transform="translate(728.11,1947.96)" fill="none"/><path stroke="#6d6d6d" d="M0,0L-10,0L-10,267.4C-10,271.6,-12.8,274.4,-17,274.4L-24.9,274.4" id="shape185" transform="translate(854.99,1754.25)" fill="none"/><path stroke="#6d6d6d" d="M0,0L-7.2,0L-7.2,-10.1C-7.2,-13.7,-9.6,-16.1,-13.2,-16.1L-17.9,-16.1" id="shape186" transform="translate(728.11,2028.67)" fill="none"/><path stroke="#6d6d6d" d="M0,0L-7.2,0L-7.2,10.1C-7.2,13.7,-9.6,16.1,-13.2,16.1L-17.9,16.1" id="shape187" transform="translate(728.11,2028.67)" fill="none"/><path stroke="#6d6d6d" d="M0,0L-10.3,0L-10.3,196.7C-10.3,201.5,-13.5,204.7,-18.3,204.7L-25.6,204.7" id="shape188" transform="translate(922.62,1920.81)" fill="none"/><path stroke="#6d6d6d" d="M0,0L-8.1,0L-8.1,-42.4C-8.1,-46,-10.5,-48.4,-14.1,-48.4L-20.2,-48.4" id="shape189" transform="translate(824.99,2125.52)" fill="none"/><path stroke="#6d6d6d" d="M0,0L-8.1,0L-8.1,-10.1C-8.1,-13.7,-10.5,-16.1,-14.1,-16.1L-20.2,-16.1" id="shape190" transform="translate(824.99,2125.52)" fill="none"/><path stroke="#6d6d6d" d="M0,0L-8.1,0L-8.1,10.1C-8.1,13.7,-10.5,16.1,-14.1,16.1L-20.2,16.1" id="shape191" transform="translate(824.99,2125.53)" fill="none"/><path stroke="#6d6d6d" d="M0,0L-8.1,0L-8.1,42.4C-8.1,46,-10.5,48.4,-14.1,48.4L-20.2,48.4" id="shape192" transform="translate(824.99,2125.53)" fill="none"/><path stroke="#6d6d6d" d="M0,0L-10.3,0L-10.3,293.6C-10.3,298.4,-13.5,301.6,-18.3,301.6L-25.6,301.6" id="shape193" transform="translate(922.62,1920.82)" fill="none"/><path stroke="#6d6d6d" d="M0,0L-6.3,0L-6.3,-11.1C-6.3,-14.1,-8.3,-16.1,-11.3,-16.1L-15.8,-16.1" id="shape194" transform="translate(778.99,2222.38)" fill="none"/><path stroke="#6d6d6d" d="M0,0L-10.3,0L-10.3,342C-10.3,346.8,-13.5,350,-18.3,350L-25.6,350" id="shape195" transform="translate(922.62,1920.81)" fill="none"/><path stroke="#6d6d6d" d="M0,0L-3,0C-3,0,-3,0,-3,0L-7.6,0" id="shape196" transform="translate(756.99,2270.81)" fill="none"/><path stroke="#6d6d6d" d="M0,0L-10.3,0L-10.3,568C-10.3,572.8,-13.5,576,-18.3,576L-25.6,576" id="shape197" transform="translate(922.62,1920.81)" fill="none"/><path stroke="#6d6d6d" d="M0,0L-10,0L-10,-41.4C-10,-45.6,-12.8,-48.4,-17,-48.4L-24.9,-48.4" id="shape198" transform="translate(776.58,2351.52)" fill="none"/><path stroke="#6d6d6d" d="M0,0L-10,0L-10,-9.1C-10,-13.3,-12.8,-16.1,-17,-16.1L-24.9,-16.1" id="shape199" transform="translate(776.58,2351.52)" fill="none"/><path stroke="#6d6d6d" d="M0,0L-10,0L-10,41.4C-10,45.6,-12.8,48.4,-17,48.4L-24.9,48.4" id="shape200" transform="translate(776.58,2351.52)" fill="none"/><path stroke="#6d6d6d" d="M0,0L-10,0L-10,9.1C-10,13.3,-12.8,16.1,-17,16.1L-24.9,16.1" id="shape201" transform="translate(776.58,2351.52)" fill="none"/><path stroke="#6d6d6d" d="M0,0L-8.2,0L-8.2,-139.3C-8.2,-142.9,-10.6,-145.3,-14.2,-145.3L-20.4,-145.3" id="shape202" transform="translate(838.99,2496.8)" fill="none"/><path stroke="#6d6d6d" d="M0,0L-8.2,0L-8.2,-10.1C-8.2,-13.7,-10.6,-16.1,-14.2,-16.1L-20.4,-16.1" id="shape203" transform="translate(838.99,2496.8)" fill="none"/><path stroke="#6d6d6d" d="M0,0L-7.2,0L-7.2,-42.4C-7.2,-46,-9.6,-48.4,-13.2,-48.4L-18.1,-48.4" id="shape204" transform="translate(730.58,2480.66)" fill="none"/><path stroke="#6d6d6d" d="M0,0L-7.2,0L-7.2,42.4C-7.2,46,-9.6,48.4,-13.2,48.4L-18.1,48.4" id="shape205" transform="translate(730.58,2480.67)" fill="none"/><path stroke="#6d6d6d" d="M0,0L-7.2,0L-7.2,10.1C-7.2,13.7,-9.6,16.1,-13.2,16.1L-18.1,16.1" id="shape206" transform="translate(730.58,2480.66)" fill="none"/><path stroke="#6d6d6d" d="M0,0L-7.2,0L-7.2,-10.1C-7.2,-13.7,-9.6,-16.1,-13.2,-16.1L-18.1,-16.1" id="shape207" transform="translate(730.58,2480.66)" fill="none"/><path stroke="#6d6d6d" d="M0,0L192.6,-1006" id="shape208" transform="translate(1177.18,1469.4)" fill="none"/><path stroke="#6d6d6d" d="M0,0L-192.6,451.4" id="shape209" transform="translate(1177.18,1469.4)" fill="none"/><path stroke="#6d6d6d" d="M0,0L-192.6,-468.1" id="shape210" transform="translate(1177.18,1469.4)" fill="none"/><path stroke="#6d6d6d" d="M0,0L-8.2,0L-8.2,74.7C-8.2,78.3,-10.6,80.7,-14.2,80.7L-20.4,80.7" id="shape211" transform="translate(838.99,2496.8)" fill="none"/><path stroke="#6d6d6d" d="M0,0L-7.2,0L-7.2,-10.1C-7.2,-13.7,-9.6,-16.1,-13.2,-16.1L-18.1,-16.1" id="shape212" transform="translate(730.58,2577.52)" fill="none"/><path stroke="#6d6d6d" d="M0,0L-7.2,0L-7.2,10.1C-7.2,13.7,-9.6,16.1,-13.2,16.1L-18.1,16.1" id="shape213" transform="translate(730.58,2577.52)" fill="none"/><path stroke="#6d6d6d" d="M0,0L-8.2,0L-8.2,139.3C-8.2,142.9,-10.6,145.3,-14.2,145.3L-20.4,145.3" id="shape214" transform="translate(838.99,2496.81)" fill="none"/><path stroke="#6d6d6d" d="M0,0L-5.1,0L-5.1,-12.1C-5.1,-14.5,-6.7,-16.1,-9.1,-16.1L-12.8,-16.1" id="shape215" transform="translate(704.58,2642.09)" fill="none"/><path stroke="#6d6d6d" d="M0,0L-5.1,0L-5.1,12.1C-5.1,14.5,-6.7,16.1,-9.1,16.1L-12.8,16.1" id="shape216" transform="translate(704.58,2642.09)" fill="none"/><path stroke="#6d6d6d" d="M0,0L-6.3,0L-6.3,11.1C-6.3,14.1,-8.3,16.1,-11.3,16.1L-15.8,16.1" id="shape217" transform="translate(778.99,2222.38)" fill="none"/><g transform="translate(1117.18,1449.4)"><g id="shape218"><path fill-opacity="0.08" d="M9.2,2L114.8,2C118.8,2,122,5.2,122,9.2L122,34.8C122,38.8,118.8,42,114.8,42L9.2,42C5.2,42,2,38.8,2,34.8L2,9.2C2,5.2,5.2,2,9.2,2z" fill="#000000"/><path stroke="#838383" d="M7.2,0L112.8,0C116.8,0,120,3.2,120,7.2L120,32.8C120,36.8,116.8,40,112.8,40L7.2,40C3.2,40,0,36.8,0,32.8L0,7.2C0,3.2,3.2,0,7.2,0z" fill="url(#lg1)"/></g><text class="st1"><tspan y="24.3" x="18">Java核心技术</tspan></text></g><g transform="translate(840.62,451.13)"><g id="shape219"><path fill-opacity="0.08" d="M8.5,2L139.5,2C143.1,2,146,4.9,146,8.5L146,31.5C146,35.1,143.1,38,139.5,38L8.5,38C4.9,38,2,35.1,2,31.5L2,8.5C2,4.9,4.9,2,8.5,2z" fill="#000000"/><path stroke="#838383" d="M6.5,0L137.5,0C141.1,0,144,2.9,144,6.5L144,29.5C144,33.1,141.1,36,137.5,36L6.5,36C2.9,36,0,33.1,0,29.5L0,6.5C0,2.9,2.9,0,6.5,0z" fill="url(#lg1)"/></g><text class="st1"><tspan y="22.3" x="15.6">基本程序设计结构</tspan></text></g><g transform="translate(741.97,240.21)"><path stroke="#838383" d="M0,22L72,22" id="shape220" fill="none"/><text class="st1"><tspan y="16.8" x="5.4">数据类型</tspan></text></g><g transform="translate(573.73,224.07)"><path stroke="#838383" d="M0,22L148,22" id="shape221" fill="none"/><text class="st1"><tspan y="16.8" x="6.9">占用字节与平台无关</tspan></text></g><g transform="translate(573.73,256.35)"><path stroke="#838383" d="M0,22L148,22" id="shape222" fill="none"/><text class="st1"><tspan y="16.8" x="6.9">表示范围与平台无关</tspan></text></g><g transform="translate(771.97,288.64)"><path stroke="#838383" d="M0,22L42,22" id="shape223" fill="none"/><text class="st1"><tspan y="16.8" x="4.8">变量</tspan></text></g><g transform="translate(615.09,288.64)"><path stroke="#838383" d="M0,22L132,22" id="shape224" fill="none"/><text class="st1"><tspan y="16.8" x="6.6">不区分声明和定义</tspan></text></g><g transform="translate(707.97,353.21)"><path stroke="#838383" d="M0,22L106,22" id="shape225" fill="none"/><text class="st1"><tspan y="16.8" x="7.5">字符串String</tspan></text></g><g transform="translate(562.05,320.92)"><path stroke="#838383" d="M0,22L132,22" id="shape226" fill="none"/><text class="st1"><tspan y="16.8" x="6.6">没有提供修改方法</tspan></text></g><g transform="translate(348.05,353.21)"><path stroke="#838383" d="M0,22L346,22" id="shape227" fill="none"/><text class="st1"><tspan y="16.8" x="12.8">不能直接使用“==”进行比较，需使用equals函数</tspan></text></g><g transform="translate(368.05,385.49)"><path stroke="#838383" d="M0,22L326,22" id="shape228" fill="none"/><text class="st1"><tspan y="16.8" x="16.7">字符串构造器 StringBuilder或StringBuffer</tspan></text></g><g transform="translate(741.97,433.92)"><path stroke="#838383" d="M0,22L72,22" id="shape229" fill="none"/><text class="st1"><tspan y="16.8" x="5.4">输入输出</tspan></text></g><g transform="translate(415.73,417.78)"><path stroke="#838383" d="M0,22L306,22" id="shape230" fill="none"/><text class="st1"><tspan y="16.8" x="13.9">控制台输入：构建Scanner并关联Syeten.in</tspan></text></g><g transform="translate(539.73,450.06)"><path stroke="#838383" d="M0,22L182,22" id="shape231" fill="none"/><text class="st1"><tspan y="16.8" x="10">控制台输出：System.out</tspan></text></g><g transform="translate(900.62,983.26)"><g id="shape232"><path fill-opacity="0.08" d="M8.5,2L79.5,2C83.1,2,86,4.9,86,8.5L86,31.5C86,35.1,83.1,38,79.5,38L8.5,38C4.9,38,2,35.1,2,31.5L2,8.5C2,4.9,4.9,2,8.5,2z" fill="#000000"/><path stroke="#838383" d="M6.5,0L77.5,0C81.1,0,84,2.9,84,6.5L84,29.5C84,33.1,81.1,36,77.5,36L6.5,36C2.9,36,0,33.1,0,29.5L0,6.5C0,2.9,2.9,0,6.5,0z" fill="url(#lg1)"/></g><text class="st1"><tspan y="22.3" x="14.4">异常处理</tspan></text></g><g transform="translate(755.97,498.49)"><path stroke="#838383" d="M0,22L58,22" id="shape233" fill="none"/><text class="st1"><tspan y="16.8" x="5.1">大数值</tspan></text></g><g transform="translate(447.56,482.35)"><path stroke="#838383" d="M0,22L288,22" id="shape234" fill="none"/><text class="st1"><tspan y="16.8" x="12.1">BigInteger：任意长度和精度的整形运算</tspan></text></g><g transform="translate(447.56,514.63)"><path stroke="#838383" d="M0,22L288,22" id="shape235" fill="none"/><text class="st1"><tspan y="16.8" x="12.1">DigDecimal：任意长度和精度的浮点运算</tspan></text></g><g transform="translate(771.97,579.2)"><path stroke="#838383" d="M0,22L42,22" id="shape236" fill="none"/><text class="st1"><tspan y="16.8" x="4.8">数组</tspan></text></g><g transform="translate(565.09,546.92)"><path stroke="#838383" d="M0,22L182,22" id="shape237" fill="none"/><text class="st1"><tspan y="16.8" x="9.5">可使用for each进行遍历</tspan></text></g><g transform="translate(519.09,579.2)"><path stroke="#838383" d="M0,22L228,22" id="shape238" fill="none"/><text class="st1"><tspan y="16.8" x="11.4">可使用Array.copyOf进行深拷贝</tspan></text></g><g transform="translate(615.09,611.49)"><path stroke="#838383" d="M0,22L132,22" id="shape239" fill="none"/><text class="st1"><tspan y="16.8" x="6.6">多维数组的行交换</tspan></text></g><g transform="translate(725.97,676.06)"><path stroke="#838383" d="M0,22L88,22" id="shape240" fill="none"/><text class="st1"><tspan y="16.8" x="5.7">访问修饰符</tspan></text></g><g transform="translate(533.89,643.77)"><path stroke="#838383" d="M0,22L174,22" id="shape241" fill="none"/><text class="st1"><tspan y="16.8" x="9.1">private：仅对本类可见</tspan></text></g><g transform="translate(541.89,676.06)"><path stroke="#838383" d="M0,22L166,22" id="shape242" fill="none"/><text class="st1"><tspan y="16.8" x="8.7">public：对所有类可见</tspan></text></g><g transform="translate(457.89,708.35)"><path stroke="#838383" d="M0,22L250,22" id="shape243" fill="none"/><text class="st1"><tspan y="16.8" x="11.1">protected：对本包和所有子类可见</tspan></text></g><g transform="translate(789.93,808.66)"><path stroke="#838383" d="M0,22L84,22" id="shape244" fill="none"/><text class="st1"><tspan y="17.7" x="11">Throwable</tspan></text></g><g transform="translate(722.76,752.16)"><path stroke="#838383" d="M0,22L52,22" id="shape245" fill="none"/><text class="st1"><tspan y="17.7" x="9.4">Error</tspan></text></g><g transform="translate(690.76,865.16)"><path stroke="#838383" d="M0,22L84,22" id="shape246" fill="none"/><text class="st1"><tspan y="17.7" x="11">Exception</tspan></text></g><g transform="translate(575.6,816.73)"><path stroke="#838383" d="M0,22L100,22" id="shape247" fill="none"/><text class="st1"><tspan y="17.7" x="11.8">IOException</tspan></text></g><g transform="translate(535.6,913.59)"><path stroke="#838383" d="M0,22L140,22" id="shape248" fill="none"/><text class="st1"><tspan y="17.7" x="13.8">RuntimeException</tspan></text></g><g transform="translate(525.28,752.16)"><path stroke="#838383" d="M0,22L178,22" id="shape249" fill="none"/><text class="st1"><tspan y="17.7" x="10.7">系统内部错误或资源耗尽</tspan></text></g><g transform="translate(384.61,784.44)"><path stroke="#838383" d="M0,22L178,22" id="shape250" fill="none"/><text class="st1"><tspan y="17.7" x="10.7">试图在文件尾部读取数据</tspan></text></g><g transform="translate(370.61,816.73)"><path stroke="#838383" d="M0,22L192,22" id="shape251" fill="none"/><text class="st1"><tspan y="17.7" x="11">试图打开一个不存在的文件</tspan></text></g><g transform="translate(90.61,849.01)"><path stroke="#838383" d="M0,22L472,22" id="shape252" fill="none"/><text class="st1"><tspan y="17.7" x="17.8">试图根据给定的字符串查找Class对象，而这个对象表示的类并不存在</tspan></text></g><g transform="translate(410.01,881.3)"><path stroke="#838383" d="M0,22L118,22" id="shape253" fill="none"/><text class="st1"><tspan y="17.7" x="9.5">错误的类型转换</tspan></text></g><g transform="translate(426.01,945.87)"><path stroke="#838383" d="M0,22L102,22" id="shape254" fill="none"/><text class="st1"><tspan y="17.7" x="9.2">数组访问越界</tspan></text></g><g transform="translate(440.01,913.59)"><path stroke="#838383" d="M0,22L88,22" id="shape255" fill="none"/><text class="st1"><tspan y="17.7" x="8.9">访问空指针</tspan></text></g><g transform="translate(725.93,1026.58)"><path stroke="#838383" d="M0,22L148,22" id="shape256" fill="none"/><text class="st1"><tspan y="17.7" x="10.1">需要抛出异常的场景</tspan></text></g><g transform="translate(490.5,978.16)"><path stroke="#838383" d="M0,22L222,22" id="shape257" fill="none"/><text class="st1"><tspan y="17.7" x="11.6">调用一个抛出已检查异常的方法</tspan></text></g><g transform="translate(270.5,1010.44)"><path stroke="#838383" d="M0,22L442,22" id="shape258" fill="none"/><text class="st1"><tspan y="17.7" x="17.2">程序运行过程中发现错误，并利用throw语句抛出一个已检查异常</tspan></text></g><g transform="translate(492.5,1042.73)"><path stroke="#838383" d="M0,22L220,22" id="shape259" fill="none"/><text class="st1"><tspan y="17.7" x="13.7">程序出现错误，例如array[-1]</tspan></text></g><g transform="translate(442.5,1075.01)"><path stroke="#838383" d="M0,22L270,22" id="shape260" fill="none"/><text class="st1"><tspan y="17.7" x="13.5">Java虚拟机和运行时库出现的内部错误</tspan></text></g><g transform="translate(801.93,1171.87)"><path stroke="#838383" d="M0,22L72,22" id="shape261" fill="none"/><text class="st1"><tspan y="17.7" x="8.6">使用技巧</tspan></text></g><g transform="translate(573.68,1107.3)"><path stroke="#838383" d="M0,22L208,22" id="shape262" fill="none"/><text class="st1"><tspan y="17.7" x="11.3">异常处理不能代替简单的测试</tspan></text></g><g transform="translate(633.68,1139.58)"><path stroke="#838383" d="M0,22L148,22" id="shape263" fill="none"/><text class="st1"><tspan y="17.7" x="10.1">不要过分的细化异常</tspan></text></g><g transform="translate(483.68,1171.87)"><path stroke="#838383" d="M0,22L298,22" id="shape264" fill="none"/><text class="st1"><tspan y="17.7" x="13.1">利用异常层次结构，使用更清楚明了的异常</tspan></text></g><g transform="translate(679.68,1204.15)"><path stroke="#838383" d="M0,22L102,22" id="shape265" fill="none"/><text class="st1"><tspan y="17.7" x="9.2">不要压制异常</tspan></text></g><g transform="translate(663.68,1236.44)"><path stroke="#838383" d="M0,22L118,22" id="shape266" fill="none"/><text class="st1"><tspan y="17.7" x="9.5">早抛出，晚捕获</tspan></text></g><g transform="translate(922.62,1902.81)"><g id="shape267"><path fill-opacity="0.08" d="M8.5,2L57.5,2C61.1,2,64,4.9,64,8.5L64,31.5C64,35.1,61.1,38,57.5,38L8.5,38C4.9,38,2,35.1,2,31.5L2,8.5C2,4.9,4.9,2,8.5,2z" fill="#000000"/><path stroke="#838383" d="M6.5,0L55.5,0C59.1,0,62,2.9,62,6.5L62,29.5C62,33.1,59.1,36,55.5,36L6.5,36C2.9,36,0,33.1,0,29.5L0,6.5C0,2.9,2.9,0,6.5,0z" fill="url(#lg1)"/></g><text class="st1"><tspan y="23.2" x="13.3">多线程</tspan></text></g><g transform="translate(808.99,1344.82)"><path stroke="#838383" d="M0,22L88,22" id="shape268" fill="none"/><text class="st1"><tspan y="17.7" x="8.9">线程的状态</tspan></text></g><g transform="translate(702.91,1280.25)"><path stroke="#838383" d="M0,22L88,22" id="shape269" fill="none"/><text class="st1"><tspan y="17.7" x="8.9">新创建线程</tspan></text></g><g transform="translate(482.83,1280.25)"><path stroke="#838383" d="M0,22L202,22" id="shape270" fill="none"/><text class="st1"><tspan y="17.7" x="11.9">使用new操作符刚创建的线程</tspan></text></g><g transform="translate(702.91,1312.54)"><path stroke="#838383" d="M0,22L88,22" id="shape271" fill="none"/><text class="st1"><tspan y="17.7" x="8.9">可运行线程</tspan></text></g><g transform="translate(392.83,1312.54)"><path stroke="#838383" d="M0,22L292,22" id="shape272" fill="none"/><text class="st1"><tspan y="17.7" x="14.2">调用start方法后的线程，不一定正在运行</tspan></text></g><g transform="translate(718.91,1344.82)"><path stroke="#838383" d="M0,22L72,22" id="shape273" fill="none"/><text class="st1"><tspan y="17.7" x="8.6">阻塞线程</tspan></text></g><g transform="translate(446.83,1344.82)"><path stroke="#838383" d="M0,22L238,22" id="shape274" fill="none"/><text class="st1"><tspan y="17.7" x="11.9">获取对象锁时，锁被其他线程持有</tspan></text></g><g transform="translate(718.91,1377.11)"><path stroke="#838383" d="M0,22L72,22" id="shape275" fill="none"/><text class="st1"><tspan y="17.7" x="8.6">等待线程</tspan></text></g><g transform="translate(492.83,1377.11)"><path stroke="#838383" d="M0,22L192,22" id="shape276" fill="none"/><text class="st1"><tspan y="17.7" x="11">线程超时或者出现等待通知</tspan></text></g><g transform="translate(702.91,1409.39)"><path stroke="#838383" d="M0,22L88,22" id="shape277" fill="none"/><text class="st1"><tspan y="17.7" x="8.9">被终止线程</tspan></text></g><g transform="translate(422.83,1409.39)"><path stroke="#838383" d="M0,22L262,22" id="shape278" fill="none"/><text class="st1"><tspan y="17.7" x="13.1">run方法正常退出或者出现未捕获异常</tspan></text></g><g transform="translate(854.99,1732.25)"><path stroke="#838383" d="M0,22L42,22" id="shape279" fill="none"/><text class="st1"><tspan y="17.7" x="8">同步</tspan></text></g><g transform="translate(772.11,1457.82)"><g id="shape280"><path stroke="#000000" stroke-opacity="0.08"/><path stroke="#838383" d="M0,22L58,22" fill="none"/></g><text class="st1"><tspan y="17.7" x="8.3">锁对象</tspan></text></g><g transform="translate(619.71,1441.68)"><path stroke="#838383" d="M0,22L132,22" id="shape281" fill="none"/><text class="st1"><tspan y="17.7" x="12.9">ReentrantLock类</tspan></text></g><g transform="translate(457.71,1473.96)"><path stroke="#838383" d="M0,22L294,22" id="shape282" fill="none"/><text class="st1"><tspan y="17.7" x="14.7">最好在finally中进行解锁，防止出现死锁</tspan></text></g><g transform="translate(758.11,1522.39)"><path stroke="#838383" d="M0,22L72,22" id="shape283" fill="none"/><text class="st1"><tspan y="17.7" x="8.6">条件对象</tspan></text></g><g transform="translate(473.87,1506.25)"><path stroke="#838383" d="M0,22L264,22" id="shape284" fill="none"/><text class="st1"><tspan y="17.7" x="14.1">使用await()方法使当前线程进行等待</tspan></text></g><g transform="translate(353.87,1538.54)"><path stroke="#838383" d="M0,22L384,22" id="shape285" fill="none"/><text class="st1"><tspan y="17.7" x="17">使用signalAll方法进行激活其他因条件对象等待的线程</tspan></text></g><g transform="translate(676.11,1603.1)"><path stroke="#838383" d="M0,22L154,22" id="shape286" fill="none"/><text class="st1"><tspan y="17.7" x="13.1">synchronized关键字</tspan></text></g><g transform="translate(476.69,1570.82)"><path stroke="#838383" d="M0,22L192,22" id="shape287" fill="none"/><text class="st1"><tspan y="17.7" x="11">使用内部锁对方法进行限制</tspan></text></g><g transform="translate(446.69,1603.1)"><path stroke="#838383" d="M0,22L222,22" id="shape288" fill="none"/><text class="st1"><tspan y="17.7" x="14.7">wait()方法相当于await()方法</tspan></text></g><g transform="translate(374.69,1635.39)"><path stroke="#838383" d="M0,22L294,22" id="shape289" fill="none"/><text class="st1"><tspan y="17.7" x="18.3">notifyAll()方法相当于signalAll()方法</tspan></text></g><g transform="translate(758.11,1667.67)"><path stroke="#838383" d="M0,22L72,22" id="shape290" fill="none"/><text class="st1"><tspan y="17.7" x="8.6">同步阻塞</tspan></text></g><g transform="translate(549.87,1667.67)"><path stroke="#838383" d="M0,22L188,22" id="shape291" fill="none"/><text class="st1"><tspan y="17.7" x="16.2">synchronized(obj){...}</tspan></text></g><g transform="translate(738.11,1748.39)"><path stroke="#838383" d="M0,22L92,22" id="shape292" fill="none"/><text class="st1"><tspan y="17.7" x="10.9">Volation域</tspan></text></g><g transform="translate(556.03,1699.96)"><path stroke="#838383" d="M0,22L168,22" id="shape293" fill="none"/><text class="st1"><tspan y="17.7" x="13.4">轻量级的synchronized</tspan></text></g><g transform="translate(546.03,1732.25)"><path stroke="#838383" d="M0,22L178,22" id="shape294" fill="none"/><text class="st1"><tspan y="17.7" x="10.7">被修改时立即更新到主存</tspan></text></g><g transform="translate(562.03,1764.53)"><path stroke="#838383" d="M0,22L162,22" id="shape295" fill="none"/><text class="st1"><tspan y="17.7" x="10.4">被使用时在主存中读取</tspan></text></g><g transform="translate(418.03,1796.82)"><path stroke="#838383" d="M0,22L306,22" id="shape296" fill="none"/><text class="st1"><tspan y="17.7" x="13.5">禁止进行指令重排序,保证一定的“有序性”</tspan></text></g><g transform="translate(772.11,1845.24)"><path stroke="#838383" d="M0,22L58,22" id="shape297" fill="none"/><text class="st1"><tspan y="17.7" x="8.3">原子性</tspan></text></g><g transform="translate(559.71,1829.1)"><path stroke="#838383" d="M0,22L192,22" id="shape298" fill="none"/><text class="st1"><tspan y="17.7" x="11">要么全部执行，要么不执行</tspan></text></g><g transform="translate(283.71,1861.39)"><path stroke="#838383" d="M0,22L468,22" id="shape299" fill="none"/><text class="st1"><tspan y="17.7" x="30.2">AtomicInteger/AtomicBoolean/AtomicLong/AtomicReference...</tspan></text></g><g transform="translate(728.11,1925.96)"><path stroke="#838383" d="M0,22L102,22" id="shape300" fill="none"/><text class="st1"><tspan y="17.7" x="9.2">线程局部变量</tspan></text></g><g transform="translate(610.2,1893.67)"><path stroke="#838383" d="M0,22L100,22" id="shape301" fill="none"/><text class="st1"><tspan y="17.7" x="11.8">ThreadLocal</tspan></text></g><g transform="translate(562.2,1925.96)"><path stroke="#838383" d="M0,22L148,22" id="shape302" fill="none"/><text class="st1"><tspan y="17.7" x="10.1">通常定义为静态变量</tspan></text></g><g transform="translate(398.2,1958.24)"><path stroke="#838383" d="M0,22L312,22" id="shape303" fill="none"/><text class="st1"><tspan y="17.7" x="13.4">变量的一个“拷贝”，修改它不影响其他线程</tspan></text></g><g transform="translate(728.11,2006.67)"><path stroke="#838383" d="M0,22L102,22" id="shape304" fill="none"/><text class="st1"><tspan y="17.7" x="9.2">锁测试与超时</tspan></text></g><g transform="translate(370.2,1990.53)"><path stroke="#838383" d="M0,22L340,22" id="shape305" fill="none"/><text class="st1"><tspan y="17.7" x="23.8">boolean tryLock(long time, TimeUnit unit)</tspan></text></g><g transform="translate(280.2,2022.81)"><path stroke="#838383" d="M0,22L430,22" id="shape306" fill="none"/><text class="st1"><tspan y="17.7" x="17.9">被中断抛出异常，获取到锁返回true，指定时间到后返回false</tspan></text></g><g transform="translate(824.99,2103.52)"><path stroke="#838383" d="M0,22L72,22" id="shape307" fill="none"/><text class="st1"><tspan y="17.7" x="8.6">阻塞队列</tspan></text></g><g transform="translate(310.75,2055.1)"><path stroke="#838383" d="M0,22L494,22" id="shape308" fill="none"/><text class="st1"><tspan y="17.7" x="21.6">LinkedBlockingQueue：双端链表实现，默认没有容量上限，但可以指定</tspan></text></g><g transform="translate(528.75,2087.38)"><path stroke="#838383" d="M0,22L276,22" id="shape309" fill="none"/><text class="st1"><tspan y="17.7" x="17">ArrayBlockingQueue：构造时指定容量</tspan></text></g><g transform="translate(278.75,2119.67)"><path stroke="#838383" d="M0,22L526,22" id="shape310" fill="none"/><text class="st1"><tspan y="17.7" x="22.7">PriorityBlockingQueue：带优先级的队列，而不是先进先出，没有容量上限</tspan></text></g><g transform="translate(310.75,2151.95)"><path stroke="#838383" d="M0,22L494,22" id="shape311" fill="none"/><text class="st1"><tspan y="17.7" x="21.1">DelayQueue：实现了Delayed接口，元素在延迟用完的情况下才能被移除</tspan></text></g><g transform="translate(778.99,2200.38)"><path stroke="#838383" d="M0,22L118,22" id="shape312" fill="none"/><text class="st1"><tspan y="17.7" x="9.5">线程安全的集合</tspan></text></g><g transform="translate(345.24,2184.24)"><path stroke="#838383" d="M0,22L418,22" id="shape313" fill="none"/><text class="st1"><tspan y="17.7" x="15.5">添加了锁对象，集合中的每个方法都通过这个锁对象实现同步</tspan></text></g><g transform="translate(756.99,2248.81)"><path stroke="#838383" d="M0,22L140,22" id="shape314" fill="none"/><text class="st1"><tspan y="17.7" x="13.3">Callable和Future</tspan></text></g><g transform="translate(527.4,2248.81)"><path stroke="#838383" d="M0,22L222,22" id="shape315" fill="none"/><text class="st1"><tspan y="17.7" x="11.6">获取线程的运行结果和运行状态</tspan></text></g><g transform="translate(838.99,2474.81)"><path stroke="#838383" d="M0,22L58,22" id="shape316" fill="none"/><text class="st1"><tspan y="17.7" x="8.3">执行器</tspan></text></g><g transform="translate(499.71,2281.09)"><path stroke="#838383" d="M0,22L252,22" id="shape317" fill="none"/><text class="st1"><tspan y="17.7" x="12.2">线程执行器分离了任务的创建和执行</tspan></text></g><g transform="translate(543.71,2313.38)"><path stroke="#838383" d="M0,22L208,22" id="shape318" fill="none"/><text class="st1"><tspan y="17.7" x="11.3">使用线程池来提高程序的性能</tspan></text></g><g transform="translate(495.71,2377.95)"><path stroke="#838383" d="M0,22L256,22" id="shape319" fill="none"/><text class="st1"><tspan y="17.7" x="14.2">可以处理实现了Callable接口的任务</tspan></text></g><g transform="translate(529.71,2345.66)"><path stroke="#838383" d="M0,22L222,22" id="shape320" fill="none"/><text class="st1"><tspan y="17.7" x="11.6">提供了一些操作线程任务的功能</tspan></text></g><g transform="translate(776.58,2329.52)"><path stroke="#838383" d="M0,22L42,22" id="shape321" fill="none"/><text class="st1"><tspan y="17.7" x="8">特性</tspan></text></g><g transform="translate(730.58,2458.66)"><path stroke="#838383" d="M0,22L88,22" id="shape322" fill="none"/><text class="st1"><tspan y="17.7" x="8.9">线程池分类</tspan></text></g><g transform="translate(322.5,2410.24)"><path stroke="#838383" d="M0,22L390,22" id="shape323" fill="none"/><text class="st1"><tspan y="17.7" x="19.5">newCachedThreadPool：任务数大于线程数，便新增线程</tspan></text></g><g transform="translate(410.5,2507.09)"><path stroke="#838383" d="M0,22L302,22" id="shape324" fill="none"/><text class="st1"><tspan y="17.7" x="18.7">newSingleThreadExecutor：单线程线程池</tspan></text></g><g transform="translate(358.5,2474.81)"><path stroke="#838383" d="M0,22L354,22" id="shape325" fill="none"/><text class="st1"><tspan y="17.7" x="19.5">newScheduledThreadPool：可周期和定时执行任务</tspan></text></g><g transform="translate(286.5,2442.52)"><path stroke="#838383" d="M0,22L426,22" id="shape326" fill="none"/><text class="st1"><tspan y="17.7" x="20">newFixedThreadPool：固定线程数，任务数大于线程数便阻塞</tspan></text></g><g transform="translate(730.58,2555.52)"><path stroke="#838383" d="M0,22L88,22" id="shape327" fill="none"/><text class="st1"><tspan y="17.7" x="8.9">控制任务组</tspan></text></g><g transform="translate(354.5,2539.37)"><path stroke="#838383" d="M0,22L358,22" id="shape328" fill="none"/><text class="st1"><tspan y="17.7" x="17.9">invokeAll：所有任务完成或超时时返回Future列表</tspan></text></g><g transform="translate(282.5,2571.66)"><path stroke="#838383" d="M0,22L430,22" id="shape329" fill="none"/><text class="st1"><tspan y="17.7" x="17.9">invokeAny：返回第一个完成的任务的结果，其他任务立即停止</tspan></text></g><g transform="translate(704.58,2620.09)"><path stroke="#838383" d="M0,22L114,22" id="shape330" fill="none"/><text class="st1"><tspan y="17.7" x="11.6">Fork-Join框架</tspan></text></g><g transform="translate(409.75,2603.94)"><path stroke="#838383" d="M0,22L282,22" id="shape331" fill="none"/><text class="st1"><tspan y="17.7" x="12.8">将大任务细分小任务，将小任务结果汇总</tspan></text></g><g transform="translate(393.75,2636.23)"><path stroke="#838383" d="M0,22L298,22" id="shape332" fill="none"/><text class="st1"><tspan y="17.7" x="13.1">工作窃取模式，每个线程都有一个双端队列</tspan></text></g><g transform="translate(95.24,2216.52)"><path stroke="#838383" d="M0,22L668,22" id="shape333" fill="none"/><text class="st1"><tspan y="17.7" x="40.2">ConcurrentHashMap/ConcurrentSkipListMap/ConcurrentSkiListSet/ConcurrentLinkedQueue</tspan></text></g><g transform="translate(1510.41,2443.67)"><path stroke="#838383" d="M0,22L102,22" id="shape334" fill="none"/><text class="st1"><tspan y="17.7" x="9.2">约束与局限性</tspan></text></g><g transform="translate(1630.32,2411.39)"><path stroke="#838383" d="M0,22L238,22" id="shape335" fill="none"/><text class="st1"><tspan y="17.7" x="11.9">不能使用基本类型实例化类型参数</tspan></text></g><g transform="translate(1630.32,2443.67)"><path stroke="#838383" d="M0,22L238,22" id="shape336" fill="none"/><text class="st1"><tspan y="17.7" x="11.9">运行时类型检查只适用于原始类型</tspan></text></g><g transform="translate(1630.32,2475.96)"><path stroke="#838383" d="M0,22L192,22" id="shape337" fill="none"/><text class="st1"><tspan y="17.7" x="11">不能创建参数化类型的数组</tspan></text></g><g transform="translate(1369.74,445.37)"><g id="shape338"><path fill-opacity="0.08" d="M8.5,2L79.5,2C83.1,2,86,4.9,86,8.5L86,31.5C86,35.1,83.1,38,79.5,38L8.5,38C4.9,38,2,35.1,2,31.5L2,8.5C2,4.9,4.9,2,8.5,2z" fill="#000000"/><path stroke="#838383" d="M6.5,0L77.5,0C81.1,0,84,2.9,84,6.5L84,29.5C84,33.1,81.1,36,77.5,36L6.5,36C2.9,36,0,33.1,0,29.5L0,6.5C0,2.9,2.9,0,6.5,0z" fill="url(#lg1)"/></g><text class="st1"><tspan y="22.3" x="14.4">对象和类</tspan></text></g><g transform="translate(1480.43,363.58)"><path stroke="#838383" d="M0,22L276,22" id="shape339" fill="none"/><text class="st1"><tspan y="16.8" x="10.2">构造器伴随着new使用，在堆上分配空间</tspan></text></g><g transform="translate(1480.43,412.01)"><path stroke="#838383" d="M0,22L92,22" id="shape340" fill="none"/><text class="st1"><tspan y="16.8" x="7.7">包 package</tspan></text></g><g transform="translate(1586.51,395.87)"><path stroke="#838383" d="M0,22L178,22" id="shape341" fill="none"/><text class="st1"><tspan y="16.8" x="7.5">目的：确保类名的唯一性</tspan></text></g><g transform="translate(1586.51,428.15)"><path stroke="#838383" d="M0,22L342,22" id="shape342" fill="none"/><text class="st1"><tspan y="16.8" x="10.8">一个类可以使用当前包的所有类和其他包的共有类</tspan></text></g><g transform="translate(1480.43,541.15)"><path stroke="#838383" d="M0,22L72,22" id="shape343" fill="none"/><text class="st1"><tspan y="16.8" x="5.4">设计技巧</tspan></text></g><g transform="translate(1572.67,460.44)"><path stroke="#838383" d="M0,22L148,22" id="shape344" fill="none"/><text class="st1"><tspan y="16.8" x="6.9">一定要保证数据私有</tspan></text></g><g transform="translate(1572.67,492.73)"><path stroke="#838383" d="M0,22L148,22" id="shape345" fill="none"/><text class="st1"><tspan y="16.8" x="6.9">一定要对数据初始化</tspan></text></g><g transform="translate(1572.67,525.01)"><path stroke="#838383" d="M0,22L222,22" id="shape346" fill="none"/><text class="st1"><tspan y="16.8" x="8.4">不要在类中使用过多的数据类型</tspan></text></g><g transform="translate(1572.67,557.29)"><path stroke="#838383" d="M0,22L298,22" id="shape347" fill="none"/><text class="st1"><tspan y="16.8" x="9.9">不是所有的域都需要独立的访问器和修改器</tspan></text></g><g transform="translate(1572.67,589.58)"><path stroke="#838383" d="M0,22L178,22" id="shape348" fill="none"/><text class="st1"><tspan y="16.8" x="7.5">将职责过多的类进行分解</tspan></text></g><g transform="translate(1572.67,621.87)"><path stroke="#838383" d="M0,22L252,22" id="shape349" fill="none"/><text class="st1"><tspan y="16.8" x="9">类名和方法名要能够体现他们的职责</tspan></text></g><g transform="translate(1369.74,1029.96)"><g id="shape350"><path fill-opacity="0.08" d="M8.5,2L49.5,2C53.1,2,56,4.9,56,8.5L56,31.5C56,35.1,53.1,38,49.5,38L8.5,38C4.9,38,2,35.1,2,31.5L2,8.5C2,4.9,4.9,2,8.5,2z" fill="#000000"/><path stroke="#838383" d="M6.5,0L47.5,0C51.1,0,54,2.9,54,6.5L54,29.5C54,33.1,51.1,36,47.5,36L6.5,36C2.9,36,0,33.1,0,29.5L0,6.5C0,2.9,2.9,0,6.5,0z" fill="url(#lg1)"/></g><text class="st1"><tspan y="22.3" x="13.8">继承</tspan></text></g><g transform="translate(1450.45,665.68)"><path stroke="#838383" d="M0,22L162,22" id="shape351" fill="none"/><text class="st1"><tspan y="16.8" x="7.2">所有继承都是公有继承</tspan></text></g><g transform="translate(1450.45,778.68)"><path stroke="#838383" d="M0,22L42,22" id="shape352" fill="none"/><text class="st1"><tspan y="16.8" x="4.8">超类</tspan></text></g><g transform="translate(1517.33,762.54)"><path stroke="#838383" d="M0,22L256,22" id="shape353" fill="none"/><text class="st1"><tspan y="16.8" x="10.5">使用关键字 super表示超类，即父类</tspan></text></g><g transform="translate(1517.33,794.82)"><path stroke="#838383" d="M0,22L302,22" id="shape354" fill="none"/><text class="st1"><tspan y="16.8" x="12.4">在子类构造器中对超类进行构造 super(..)</tspan></text></g><g transform="translate(1625.71,665.68)"><path stroke="#838383" d="M0,22L238,22" id="shape355" fill="none"/><text class="st1"><tspan y="16.8" x="8.7">不需要声明虚方法，默认动态绑定</tspan></text></g><g transform="translate(1870.16,665.68)"><path stroke="#838383" d="M0,22L222,22" id="shape356" fill="none"/><text class="st1"><tspan y="16.8" x="8.4">不能多继承，但可实现多个接口</tspan></text></g><g transform="translate(1450.45,714.11)"><path stroke="#838383" d="M0,22L98,22" id="shape357" fill="none"/><text class="st1"><tspan y="16.8" x="7.1">final关键字</tspan></text></g><g transform="translate(1563.45,697.97)"><path stroke="#838383" d="M0,22L208,22" id="shape358" fill="none"/><text class="st1"><tspan y="16.8" x="11.7">阻止类继承 final class...</tspan></text></g><g transform="translate(1563.45,730.25)"><path stroke="#838383" d="M0,22L270,22" id="shape359" fill="none"/><text class="st1"><tspan y="16.8" x="14.4">阻止方法覆盖 public final void...</tspan></text></g><g transform="translate(1450.45,859.39)"><path stroke="#838383" d="M0,22L58,22" id="shape360" fill="none"/><text class="st1"><tspan y="16.8" x="5.1">抽象类</tspan></text></g><g transform="translate(1528.86,827.11)"><path stroke="#838383" d="M0,22L190,22" id="shape361" fill="none"/><text class="st1"><tspan y="16.8" x="9.9">使用关键字 abstract定义</tspan></text></g><g transform="translate(1528.86,859.39)"><path stroke="#838383" d="M0,22L192,22" id="shape362" fill="none"/><text class="st1"><tspan y="16.8" x="7.8">包含一个或者多个抽象方法</tspan></text></g><g transform="translate(1528.86,891.68)"><path stroke="#838383" d="M0,22L148,22" id="shape363" fill="none"/><text class="st1"><tspan y="16.8" x="6.9">抽象方法不需要实现</tspan></text></g><g transform="translate(1450.45,1085.39)"><path stroke="#838383" d="M0,22L76,22" id="shape364" fill="none"/><text class="st1"><tspan y="16.8" x="6.9">Object类</tspan></text></g><g transform="translate(1542.69,923.96)"><path stroke="#838383" d="M0,22L102,22" id="shape365" fill="none"/><text class="st1"><tspan y="16.8" x="6">所有类的超类</tspan></text></g><g transform="translate(1542.69,1036.96)"><path stroke="#838383" d="M0,22L90,22" id="shape366" fill="none"/><text class="st1"><tspan y="16.8" x="7.2">equals方法</tspan></text></g><g transform="translate(1662.61,956.25)"><path stroke="#838383" d="M0,22L80,22" id="shape367" fill="none"/><text class="st1"><tspan y="16.8" x="5.8">1）自反性</tspan></text></g><g transform="translate(1662.61,988.53)"><path stroke="#838383" d="M0,22L80,22" id="shape368" fill="none"/><text class="st1"><tspan y="16.8" x="5.8">2）对称性</tspan></text></g><g transform="translate(1662.61,1020.82)"><path stroke="#838383" d="M0,22L80,22" id="shape369" fill="none"/><text class="st1"><tspan y="16.8" x="5.8">3）传递性</tspan></text></g><g transform="translate(1662.61,1053.1)"><path stroke="#838383" d="M0,22L80,22" id="shape370" fill="none"/><text class="st1"><tspan y="16.8" x="5.8">4）一致性</tspan></text></g><g transform="translate(1662.61,1085.39)"><path stroke="#838383" d="M0,22L390,22" id="shape371" fill="none"/><text class="st1"><tspan y="16.8" x="16.8">5）对于任意非空引用x，x.equals(null)应该返回false</tspan></text></g><g transform="translate(1542.69,1166.1)"><path stroke="#838383" d="M0,22L106,22" id="shape372" fill="none"/><text class="st1"><tspan y="16.8" x="8">hashCode方法</tspan></text></g><g transform="translate(1676.44,1149.96)"><path stroke="#838383" d="M0,22L192,22" id="shape373" fill="none"/><text class="st1"><tspan y="16.8" x="7.8">不同对象的散列码基本不同</tspan></text></g><g transform="translate(1676.44,1182.25)"><path stroke="#838383" d="M0,22L514,22" id="shape374" fill="none"/><text class="st1"><tspan y="16.8" x="17.6">若需要将对象插入散列表，重定义equals方法，就必须重定义hashCode方法</tspan></text></g><g transform="translate(1542.69,1246.81)"><path stroke="#838383" d="M0,22L106,22" id="shape375" fill="none"/><text class="st1"><tspan y="16.8" x="8">toString方法</tspan></text></g><g transform="translate(1676.44,1214.53)"><path stroke="#838383" d="M0,22L178,22" id="shape376" fill="none"/><text class="st1"><tspan y="16.8" x="7.5">返回对象值的一个字符串</tspan></text></g><g transform="translate(1676.44,1246.81)"><path stroke="#838383" d="M0,22L356,22" id="shape377" fill="none"/><text class="st1"><tspan y="16.8" x="17.3">System.out.println方法会直接调用toString方法</tspan></text></g><g transform="translate(1676.44,1279.1)"><path stroke="#838383" d="M0,22L290,22" id="shape378" fill="none"/><text class="st1"><tspan y="16.8" x="13.1">Object中的toString会返回类名和散列码</tspan></text></g><g transform="translate(1450.45,1408.24)"><path stroke="#838383" d="M0,22L102,22" id="shape379" fill="none"/><text class="st1"><tspan y="16.8" x="6">继承设计技巧</tspan></text></g><g transform="translate(1570.36,1311.38)"><path stroke="#838383" d="M0,22L178,22" id="shape380" fill="none"/><text class="st1"><tspan y="16.8" x="7.5">将公共操作和域放在超类</tspan></text></g><g transform="translate(1570.36,1343.67)"><path stroke="#838383" d="M0,22L148,22" id="shape381" fill="none"/><text class="st1"><tspan y="16.8" x="6.9">不要使用受保护的域</tspan></text></g><g transform="translate(1570.36,1375.95)"><path stroke="#838383" d="M0,22L194,22" id="shape382" fill="none"/><text class="st1"><tspan y="16.8" x="8.8">使用继承实现“is-a”关系</tspan></text></g><g transform="translate(1570.36,1408.24)"><path stroke="#838383" d="M0,22L342,22" id="shape383" fill="none"/><text class="st1"><tspan y="16.8" x="10.8">除非所有继承的方法都有意义，否则不要使用继承</tspan></text></g><g transform="translate(1570.36,1440.53)"><path stroke="#838383" d="M0,22L252,22" id="shape384" fill="none"/><text class="st1"><tspan y="16.8" x="9">在覆盖方法时，不要改变预期的行为</tspan></text></g><g transform="translate(1570.36,1472.81)"><path stroke="#838383" d="M0,22L178,22" id="shape385" fill="none"/><text class="st1"><tspan y="16.8" x="7.5">使用多态，而非类型信息</tspan></text></g><g transform="translate(1570.36,1505.1)"><path stroke="#838383" d="M0,22L148,22" id="shape386" fill="none"/><text class="st1"><tspan y="16.8" x="6.9">不要过多的使用反射</tspan></text></g><g transform="translate(1369.74,1646.84)"><g id="shape387"><path fill-opacity="0.08" d="M8.5,2L101.5,2C105.1,2,108,4.9,108,8.5L108,31.5C108,35.1,105.1,38,101.5,38L8.5,38C4.9,38,2,35.1,2,31.5L2,8.5C2,4.9,4.9,2,8.5,2z" fill="#000000"/><path stroke="#838383" d="M6.5,0L99.5,0C103.1,0,106,2.9,106,6.5L106,29.5C106,33.1,103.1,36,99.5,36L6.5,36C2.9,36,0,33.1,0,29.5L0,6.5C0,2.9,2.9,0,6.5,0z" fill="url(#lg1)"/></g><text class="st1"><tspan y="23.2" x="14.2">接口和内部类</tspan></text></g><g transform="translate(1593.43,1548.91)"><path stroke="#838383" d="M0,22L148,22" id="shape388" fill="none"/><text class="st1"><tspan y="17.7" x="10.1">只能定义常量和方法</tspan></text></g><g transform="translate(1501.18,1565.05)"><path stroke="#838383" d="M0,22L72,22" id="shape389" fill="none"/><text class="st1"><tspan y="17.7" x="8.6">接口特性</tspan></text></g><g transform="translate(1593.43,1581.2)"><path stroke="#838383" d="M0,22L202,22" id="shape390" fill="none"/><text class="st1"><tspan y="17.7" x="11.9">不能使用new实例化一个接口</tspan></text></g><g transform="translate(1501.18,1742.62)"><path stroke="#838383" d="M0,22L72,22" id="shape391" fill="none"/><text class="st1"><tspan y="17.7" x="8.6">常用接口</tspan></text></g><g transform="translate(1593.43,1710.34)"><path stroke="#838383" d="M0,22L344,22" id="shape392" fill="none"/><text class="st1"><tspan y="17.7" x="18.6">Comparable：包含compareTo方法，主要用于比较</tspan></text></g><g transform="translate(1593.43,1742.62)"><path stroke="#838383" d="M0,22L334,22" id="shape393" fill="none"/><text class="st1"><tspan y="17.7" x="17.2">Cloneable：包含clone方法，主要用于拷贝副本</tspan></text></g><g transform="translate(1593.43,1774.91)"><path stroke="#838383" d="M0,22L424,22" id="shape394" fill="none"/><text class="st1"><tspan y="17.7" x="22.6">ActionListener：包含actionPerformed方法，可以用于回调</tspan></text></g><g transform="translate(1501.18,1645.77)"><path stroke="#838383" d="M0,22L58,22" id="shape395" fill="none"/><text class="st1"><tspan y="17.7" x="8.3">内部类</tspan></text></g><g transform="translate(1579.59,1613.48)"><path stroke="#838383" d="M0,22L312,22" id="shape396" fill="none"/><text class="st1"><tspan y="17.7" x="13.4">可以访问该类定义所在的作用域中的所有数据</tspan></text></g><g transform="translate(1579.59,1645.77)"><path stroke="#838383" d="M0,22L148,22" id="shape397" fill="none"/><text class="st1"><tspan y="17.7" x="10.1">同包的其他类不可见</tspan></text></g><g transform="translate(1579.59,1678.05)"><path stroke="#838383" d="M0,22L298,22" id="shape398" fill="none"/><text class="st1"><tspan y="17.7" x="13.1">定义回调函数时可以使用匿名类，更加便捷</tspan></text></g><g transform="translate(1662.61,1117.67)"><path stroke="#838383" d="M0,22L84,22" id="shape399" fill="none"/><text class="st1"><tspan y="17.7" x="11">Sub Topic</tspan></text></g><g transform="translate(1369.74,2436.67)"><g id="shape400"><path fill-opacity="0.08" d="M8.5,2L109.5,2C113.1,2,116,4.9,116,8.5L116,31.5C116,35.1,113.1,38,109.5,38L8.5,38C4.9,38,2,35.1,2,31.5L2,8.5C2,4.9,4.9,2,8.5,2z" fill="#000000"/><path stroke="#838383" d="M6.5,0L107.5,0C111.1,0,114,2.9,114,6.5L114,29.5C114,33.1,111.1,36,107.5,36L6.5,36C2.9,36,0,33.1,0,29.5L0,6.5C0,2.9,2.9,0,6.5,0z" fill="url(#lg1)"/></g><text class="st1"><tspan y="23.2" x="18.2">泛型程序设计</tspan></text></g><g transform="translate(1369.74,2094.22)"><g id="shape401"><path fill-opacity="0.08" d="M8.5,2L41.5,2C45.1,2,48,4.9,48,8.5L48,31.5C48,35.1,45.1,38,41.5,38L8.5,38C4.9,38,2,35.1,2,31.5L2,8.5C2,4.9,4.9,2,8.5,2z" fill="#000000"/><path stroke="#838383" d="M6.5,0L39.5,0C43.1,0,46,2.9,46,6.5L46,29.5C46,33.1,43.1,36,39.5,36L6.5,36C2.9,36,0,33.1,0,29.5L0,6.5C0,2.9,2.9,0,6.5,0z" fill="url(#lg1)"/></g><text class="st1"><tspan y="23.2" x="13">集合</tspan></text></g><g transform="translate(1441.22,1834.87)"><path stroke="#838383" d="M0,22L118,22" id="shape402" fill="none"/><text class="st1"><tspan y="17.7" x="9.5">集合的基本接口</tspan></text></g><g transform="translate(1574.98,1818.72)"><path stroke="#838383" d="M0,22L38,22" id="shape403" fill="none"/><text class="st1"><tspan y="17.7" x="8.6">Map</tspan></text></g><g transform="translate(1574.98,1851.01)"><path stroke="#838383" d="M0,22L92,22" id="shape404" fill="none"/><text class="st1"><tspan y="17.7" x="11.4">Collection</tspan></text></g><g transform="translate(1441.22,1899.44)"><path stroke="#838383" d="M0,22L58,22" id="shape405" fill="none"/><text class="st1"><tspan y="17.7" x="8.3">迭代器</tspan></text></g><g transform="translate(1519.63,1883.29)"><path stroke="#838383" d="M0,22L132,22" id="shape406" fill="none"/><text class="st1"><tspan y="17.7" x="9.8">位于两个元素之间</tspan></text></g><g transform="translate(1519.63,1915.58)"><path stroke="#838383" d="M0,22L244,22" id="shape407" fill="none"/><text class="st1"><tspan y="17.7" x="15.4">next()和remove()具有相互依赖性</tspan></text></g><g transform="translate(1441.22,1947.87)"><path stroke="#838383" d="M0,22L92,22" id="shape408" fill="none"/><text class="st1"><tspan y="17.7" x="11.4">LinkedList</tspan></text></g><g transform="translate(1441.22,1980.15)"><path stroke="#838383" d="M0,22L84,22" id="shape409" fill="none"/><text class="st1"><tspan y="17.7" x="11">ArrayList</tspan></text></g><g transform="translate(1547.3,1947.87)"><path stroke="#838383" d="M0,22L342,22" id="shape410" fill="none"/><text class="st1"><tspan y="17.7" x="14">在任何位置进行高效地插入和删除操作的有序集合</tspan></text></g><g transform="translate(1547.3,1980.15)"><path stroke="#838383" d="M0,22L192,22" id="shape411" fill="none"/><text class="st1"><tspan y="17.7" x="11">动态增长和缩减的索引序列</tspan></text></g><g transform="translate(1441.22,2109.29)"><path stroke="#838383" d="M0,22L92,22" id="shape412" fill="none"/><text class="st1"><tspan y="17.7" x="11.4">ArrayDeque</tspan></text></g><g transform="translate(1547.3,2109.29)"><path stroke="#838383" d="M0,22L178,22" id="shape413" fill="none"/><text class="st1"><tspan y="17.7" x="10.7">循环数组实现的双端队列</tspan></text></g><g transform="translate(1441.22,2012.44)"><path stroke="#838383" d="M0,22L68,22" id="shape414" fill="none"/><text class="st1"><tspan y="17.7" x="10.2">HashSet</tspan></text></g><g transform="translate(1547.3,2012.44)"><path stroke="#838383" d="M0,22L178,22" id="shape415" fill="none"/><text class="st1"><tspan y="17.7" x="10.7">没有重复元素的无序集合</tspan></text></g><g transform="translate(1441.22,2206.15)"><path stroke="#838383" d="M0,22L68,22" id="shape416" fill="none"/><text class="st1"><tspan y="17.7" x="10.2">EnumSet</tspan></text></g><g transform="translate(1547.3,2206.15)"><path stroke="#838383" d="M0,22L162,22" id="shape417" fill="none"/><text class="st1"><tspan y="17.7" x="10.4">包含枚举类型值的集合</tspan></text></g><g transform="translate(1441.22,2044.72)"><path stroke="#838383" d="M0,22L68,22" id="shape418" fill="none"/><text class="st1"><tspan y="17.7" x="10.2">TreeSet</tspan></text></g><g transform="translate(1547.3,2044.72)"><path stroke="#838383" d="M0,22L72,22" id="shape419" fill="none"/><text class="st1"><tspan y="17.7" x="8.6">有序集合</tspan></text></g><g transform="translate(1441.22,2238.43)"><path stroke="#838383" d="M0,22L116,22" id="shape420" fill="none"/><text class="st1"><tspan y="17.7" x="12.6">LinkedHashSet</tspan></text></g><g transform="translate(1547.3,2238.43)"><path stroke="#838383" d="M0,22L208,22" id="shape421" fill="none"/><text class="st1"><tspan y="17.7" x="11.3">可以记住元素插入次序的集合</tspan></text></g><g transform="translate(1441.22,2077.01)"><path stroke="#838383" d="M0,22L116,22" id="shape422" fill="none"/><text class="st1"><tspan y="17.7" x="12.6">PriorityQueue</tspan></text></g><g transform="translate(1547.3,2077.01)"><path stroke="#838383" d="M0,22L208,22" id="shape423" fill="none"/><text class="st1"><tspan y="17.7" x="11.3">允许高效删除最小元素的集合</tspan></text></g><g transform="translate(1441.22,2141.57)"><path stroke="#838383" d="M0,22L68,22" id="shape424" fill="none"/><text class="st1"><tspan y="17.7" x="10.2">HashMap</tspan></text></g><g transform="translate(1547.3,2141.57)"><path stroke="#838383" d="M0,22L178,22" id="shape425" fill="none"/><text class="st1"><tspan y="17.7" x="10.7">存储键值关联的数据结构</tspan></text></g><g transform="translate(1441.22,2173.86)"><path stroke="#838383" d="M0,22L68,22" id="shape426" fill="none"/><text class="st1"><tspan y="17.7" x="10.2">TreeMap</tspan></text></g><g transform="translate(1547.3,2173.86)"><path stroke="#838383" d="M0,22L162,22" id="shape427" fill="none"/><text class="st1"><tspan y="17.7" x="10.4">键值有序排列的映射表</tspan></text></g><g transform="translate(1441.22,2270.72)"><path stroke="#838383" d="M0,22L68,22" id="shape428" fill="none"/><text class="st1"><tspan y="17.7" x="10.2">EnumMap</tspan></text></g><g transform="translate(1547.3,2270.72)"><path stroke="#838383" d="M0,22L192,22" id="shape429" fill="none"/><text class="st1"><tspan y="17.7" x="11">键值属于枚举类型的映射表</tspan></text></g><g transform="translate(1441.22,2303)"><path stroke="#838383" d="M0,22L116,22" id="shape430" fill="none"/><text class="st1"><tspan y="17.7" x="12.6">LinkedHashMap</tspan></text></g><g transform="translate(1547.3,2303)"><path stroke="#838383" d="M0,22L238,22" id="shape431" fill="none"/><text class="st1"><tspan y="17.7" x="11.9">可以记住键值项插入次序的映射表</tspan></text></g><g transform="translate(1441.22,2335.29)"><path stroke="#838383" d="M0,22L100,22" id="shape432" fill="none"/><text class="st1"><tspan y="17.7" x="11.8">WeakHashMap</tspan></text></g><g transform="translate(1547.3,2335.29)"><path stroke="#838383" d="M0,22L282,22" id="shape433" fill="none"/><text class="st1"><tspan y="17.7" x="12.8">值无其他引用后可以被自动回收的映射表</tspan></text></g><g transform="translate(1441.22,2367.57)"><path stroke="#838383" d="M0,22L132,22" id="shape434" fill="none"/><text class="st1"><tspan y="17.7" x="13.4">IdentityHashMap</tspan></text></g><g transform="translate(1547.3,2367.57)"><path stroke="#838383" d="M0,22L272,22" id="shape435" fill="none"/><text class="st1"><tspan y="17.7" x="14.5">用==而不是用equals比较键值的映射表</tspan></text></g><path/><g id="shape436" transform="translate(475.74,3137)"><text class="st2"><tspan y="64.9" x="89.6">集合的接口框架</tspan></text></g><g transform="translate(126.76,2798.12)"><g transform="translate(172.38,0)"><path stroke="#c2c2c2" d="M165.8,42.4L165.8,0L0,0L0,42.4L165.8,42.4z" id="shape437" fill="#ffffff"/><text class="st3"><tspan y="26.4" x="54">iterable</tspan></text></g><g transform="translate(172.63,75.24)"><path stroke="#c2c2c2" d="M165.8,42.4L165.8,0L0,0L0,42.4L165.8,42.4z" id="shape438" fill="#ffffff"/><text class="st3"><tspan y="26.4" x="46.8">Collection</tspan></text></g><g transform="translate(172.38,225.71)"><path stroke="#c2c2c2" d="M165.8,42.4L165.8,0L0,0L0,42.4L165.8,42.4z" id="shape439" fill="#ffffff"/><text class="st3"><tspan y="26.4" x="50.8">SortedSet</tspan></text></g><g transform="translate(172.38,300.94)"><path stroke="#c2c2c2" d="M165.8,42.4L165.8,0L0,0L0,42.4L165.8,42.4z" id="shape440" fill="#ffffff"/><text class="st3"><tspan y="26.4" x="39.6">NavigableSet</tspan></text></g><g transform="translate(345.25,225.71)"><path stroke="#c2c2c2" d="M165.8,42.4L165.8,0L0,0L0,42.4L165.8,42.4z" id="shape441" fill="#ffffff"/><text class="st3"><tspan y="26.4" x="65.2">Deque</tspan></text></g><g transform="translate(517.88,75.24)"><path stroke="#c2c2c2" d="M165.8,42.4L165.8,0L0,0L0,42.4L165.8,42.4z" id="shape442" fill="#ffffff"/><text class="st3"><tspan y="26.4" x="72.4">Map</tspan></text></g><g transform="translate(517.88,150.47)"><path stroke="#c2c2c2" d="M165.8,42.4L165.8,0L0,0L0,42.4L165.8,42.4z" id="shape443" fill="#ffffff"/><text class="st3"><tspan y="26.4" x="50.8">SortedMap</tspan></text></g><g transform="translate(517.88,225.71)"><path stroke="#c2c2c2" d="M165.8,42.4L165.8,0L0,0L0,42.4L165.8,42.4z" id="shape444" fill="#ffffff"/><text class="st3"><tspan y="26.4" x="39.6">NavigableMap</tspan></text></g><g transform="translate(690.51,75.24)"><path stroke="#c2c2c2" d="M165.8,42.4L165.8,0L0,0L0,42.4L165.8,42.4z" id="shape445" fill="#ffffff"/><text class="st3"><tspan y="26.4" x="54">iterator</tspan></text></g><g transform="translate(690.51,150.47)"><path stroke="#c2c2c2" d="M165.8,42.4L165.8,0L0,0L0,42.4L165.8,42.4z" id="shape446" fill="#ffffff"/><text class="st3"><tspan y="26.4" x="39.6">ListIterator</tspan></text></g><g transform="translate(863.13,75.24)"><path stroke="#c2c2c2" d="M165.8,42.4L165.8,0L0,0L0,42.4L165.8,42.4z" id="shape447" fill="#ffffff"/><text class="st3"><tspan y="26.4" x="39.6">RandomAccess</tspan></text></g><g transform="translate(0,150.47)"><path stroke="#c2c2c2" d="M165.8,42.4L165.8,0L0,0L0,42.4L165.8,42.4z" id="shape448" fill="#ffffff"/><text class="st3"><tspan y="26.4" x="68.4">List</tspan></text></g><g transform="translate(172.63,150.47)"><path stroke="#c2c2c2" d="M165.8,42.4L165.8,0L0,0L0,42.4L165.8,42.4z" id="shape449" fill="#ffffff"/><text class="st3"><tspan y="26.4" x="72.4">Set</tspan></text></g><g transform="translate(345.25,150.47)"><path stroke="#c2c2c2" d="M165.8,42.4L165.8,0L0,0L0,42.4L165.8,42.4z" id="shape450" fill="#ffffff"/><text class="st3"><tspan y="26.4" x="65.2">Queue</tspan></text></g><g id="shape451" transform="translate(255.29,225.71)"><path stroke="#236ea1" d="M0,0L0,-28.4" fill="none"/><path stroke-width="1" stroke="#236ea1" d="M0,-32.8L-3,-27.6C-2.1,-28.1,-1.1,-28.4,0,-28.4C1.1,-28.4,2.1,-28.1,3,-27.6L0,-32.8" stroke-linecap="round" fill="#236ea1"/></g><g id="shape452" transform="translate(600.8,225.71)"><path stroke="#236ea1" d="M0,0L0,-28.4" fill="none"/><path stroke-width="1" stroke="#236ea1" d="M0,-32.8L-3,-27.6C-2.1,-28.1,-1.1,-28.4,0,-28.4C1.1,-28.4,2.1,-28.1,3,-27.6L0,-32.8" stroke-linecap="round" fill="#236ea1"/></g><g id="shape453" transform="translate(255.54,150.47)"><path stroke="#236ea1" d="M0,0L0,-28.4" fill="none"/><path stroke-width="1" stroke="#236ea1" d="M0,-32.8L-3,-27.6C-2.1,-28.1,-1.1,-28.4,0,-28.4C1.1,-28.4,2.1,-28.1,3,-27.6L0,-32.8" stroke-linecap="round" fill="#236ea1"/></g><g id="shape454" transform="translate(600.8,150.47)"><path stroke="#236ea1" d="M0,0L0,-28.4" fill="none"/><path stroke-width="1" stroke="#236ea1" d="M0,-32.8L-3,-27.6C-2.1,-28.1,-1.1,-28.4,0,-28.4C1.1,-28.4,2.1,-28.1,3,-27.6L0,-32.8" stroke-linecap="round" fill="#236ea1"/></g><g id="shape455" transform="translate(773.42,150.47)"><path stroke="#236ea1" d="M0,0L0,-28.4" fill="none"/><path stroke-width="1" stroke="#236ea1" d="M0,-32.8L-3,-27.6C-2.1,-28.1,-1.1,-28.4,0,-28.4C1.1,-28.4,2.1,-28.1,3,-27.6L0,-32.8" stroke-linecap="round" fill="#236ea1"/></g><g id="shape456" transform="translate(428.17,225.71)"><path stroke="#236ea1" d="M0,0L0,-28.4" fill="none"/><path stroke-width="1" stroke="#236ea1" d="M0,-32.8L-3,-27.6C-2.1,-28.1,-1.1,-28.4,0,-28.4C1.1,-28.4,2.1,-28.1,3,-27.6L0,-32.8" stroke-linecap="round" fill="#236ea1"/></g><g id="shape457" transform="translate(255.29,300.94)"><path stroke="#236ea1" d="M0,0L0,-28.4" fill="none"/><path stroke-width="1" stroke="#236ea1" d="M0,-32.8L-3,-27.6C-2.1,-28.1,-1.1,-28.4,0,-28.4C1.1,-28.4,2.1,-28.1,3,-27.6L0,-32.8" stroke-linecap="round" fill="#236ea1"/></g><g id="shape458" transform="translate(255.54,75.24)"><path stroke="#236ea1" d="M0,0L0,-16.8L-0.2,-28.4" fill="none"/><path stroke-width="1" stroke="#236ea1" d="M-0.3,-32.8L-3.2,-27.6C-2.3,-28.1,-1.3,-28.4,-0.2,-28.4C.9,-28.4,1.9,-28.2,2.8,-27.7L-0.3,-32.8" stroke-linecap="round" fill="#236ea1"/></g><g id="shape459" transform="translate(82.92,150.47)"><path stroke="#236ea1" d="M0,0L0,-16.8L172.6,-16.8L172.6,-28.4" fill="none"/><path stroke-width="1" stroke="#236ea1" d="M172.6,-32.8L169.6,-27.6C170.5,-28.1,171.5,-28.4,172.6,-28.4C173.7,-28.4,174.7,-28.1,175.6,-27.6L172.6,-32.8" stroke-linecap="round" fill="#236ea1"/></g><g id="shape460" transform="translate(428.17,150.47)"><path stroke="#236ea1" d="M0,0L0,-16.8L-172.6,-16.8L-172.6,-28.4" fill="none"/><path stroke-width="1" stroke="#236ea1" d="M-172.6,-32.8L-175.6,-27.6C-174.7,-28.1,-173.7,-28.4,-172.6,-28.4C-171.5,-28.4,-170.5,-28.1,-169.6,-27.6L-172.6,-32.8" stroke-linecap="round" fill="#236ea1"/></g></g><g id="shape461" transform="translate(1642.32,3146)"><text class="st2"><tspan y="55.9" x="48">集合的类框架</tspan></text></g><g transform="translate(1238.52,2809.25)"><g transform="translate(280.19,0)"><path stroke="#9b9b9b" d="M108.4,48.4L108.4,0L0,0L0,48.4L108.4,48.4z" id="shape462" fill="#ffffff"/><text class="st3"><tspan y="21" x="25.8">Abstract</tspan><tspan y="37.8" x="18.6">Collection</tspan></text></g><g transform="translate(63.76,103.2)"><path stroke="#9b9b9b" d="M131.4,48.4L131.4,0L0,0L0,48.4L131.4,48.4z" id="shape463" fill="#ffffff"/><text class="st3"><tspan y="29.4" x="22.6">AbstractList</tspan></text></g><g transform="translate(268.66,103.2)"><path stroke="#9b9b9b" d="M131.4,48.4L131.4,0L0,0L0,48.4L131.4,48.4z" id="shape464" fill="#ffffff"/><text class="st3"><tspan y="29.4" x="25.8">AbstractSet</tspan></text></g><g transform="translate(473.55,103.2)"><path stroke="#9b9b9b" d="M131.4,48.4L131.4,0L0,0L0,48.4L131.4,48.4z" id="shape465" fill="#ffffff"/><text class="st3"><tspan y="29.4" x="18.6">AbstractQueue</tspan></text></g><g transform="translate(0,197.75)"><path stroke="#9b9b9b" d="M131.4,48.4L131.4,0L0,0L0,48.4L131.4,48.4z" id="shape466" fill="#ffffff"/><text class="st3"><tspan y="21" x="37">Abstract</tspan><tspan y="37.8" x="15.4">SequentialList</tspan></text></g><g transform="translate(610.73,197.75)"><path stroke="#9b9b9b" d="M131.4,48.4L131.4,0L0,0L0,48.4L131.4,48.4z" id="shape467" fill="#ffffff"/><text class="st3"><tspan y="29.4" x="29.8">ArrayDeque</tspan></text></g><g transform="translate(815.97,103.2)"><path stroke="#9b9b9b" d="M131.4,48.4L131.4,0L0,0L0,48.4L131.4,48.4z" id="shape468" fill="#ffffff"/><text class="st3"><tspan y="29.4" x="25.8">AbstractMap</tspan></text></g><g transform="translate(14.41,272.69)"><path stroke="#9b9b9b" d="M102.6,48.4L102.6,0L0,0L0,48.4L102.6,48.4z" id="shape469" fill="#ffffff"/><text class="st3"><tspan y="29.4" x="15.5">LinkedList</tspan></text></g><g transform="translate(128.56,272.69)"><path stroke="#9b9b9b" d="M102.6,48.4L102.6,0L0,0L0,48.4L102.6,48.4z" id="shape470" fill="#ffffff"/><text class="st3"><tspan y="29.4" x="18.7">ArrayList</tspan></text></g><g transform="translate(472.9,197.75)"><path stroke="#9b9b9b" d="M131.4,48.4L131.4,0L0,0L0,48.4L131.4,48.4z" id="shape471" fill="#ffffff"/><text class="st3"><tspan y="29.4" x="18.6">PriorityQueue</tspan></text></g><g transform="translate(200.25,197.75)"><path stroke="#9b9b9b" d="M131.4,48.4L131.4,0L0,0L0,48.4L131.4,48.4z" id="shape472" fill="#ffffff"/><text class="st3"><tspan y="29.4" x="40.2">HashSet</tspan></text></g><g transform="translate(337.07,197.75)"><path stroke="#9b9b9b" d="M131.4,48.4L131.4,0L0,0L0,48.4L131.4,48.4z" id="shape473" fill="#ffffff"/><text class="st3"><tspan y="29.4" x="40.2">TreeSet</tspan></text></g><g id="shape474" transform="translate(538.62,197.75)"><path stroke="#236ea1" d="M0,0L0,-41.7" fill="none"/><path stroke-width="1" stroke="#236ea1" d="M0,-46.1L-3,-40.9C-2.1,-41.4,-1.1,-41.7,0,-41.7C1.1,-41.7,2.1,-41.4,3,-40.9L0,-46.1" stroke-linecap="round" fill="#236ea1"/></g><g transform="translate(747.56,197.75)"><path stroke="#9b9b9b" d="M131.4,48.4L131.4,0L0,0L0,48.4L131.4,48.4z" id="shape475" fill="#ffffff"/><text class="st3"><tspan y="29.4" x="40.2">HashMap</tspan></text></g><g transform="translate(884.38,197.75)"><path stroke="#9b9b9b" d="M131.4,48.4L131.4,0L0,0L0,48.4L131.4,48.4z" id="shape476" fill="#ffffff"/><text class="st3"><tspan y="29.4" x="40.2">TreeMap</tspan></text></g><g id="shape477" transform="translate(65.72,272.69)"><path stroke="#236ea1" d="M0,0L0,-22.1" fill="none"/><path stroke-width="1" stroke="#236ea1" d="M0,-26.5L-3,-21.3C-2.1,-21.8,-1.1,-22.1,0,-22.1C1.1,-22.1,2.1,-21.8,3,-21.3L0,-26.5" stroke-linecap="round" fill="#236ea1"/></g><g id="shape478" transform="translate(334.38,103.2)"><path stroke="#236ea1" d="M0,0L0,-50.4" fill="none"/><path stroke-width="1" stroke="#236ea1" d="M0,-54.8L-3,-49.6C-2.1,-50.1,-1.1,-50.4,0,-50.4C1.1,-50.4,2.1,-50.1,3,-49.6L0,-54.8" stroke-linecap="round" fill="#236ea1"/></g><g id="shape479" transform="translate(65.72,197.75)"><path stroke="#236ea1" d="M0,0L0,-14.1L63.8,-14.1L63.8,-41.7" fill="none"/><path stroke-width="1" stroke="#236ea1" d="M63.8,-46.1L60.8,-40.9C61.6,-41.4,62.7,-41.7,63.8,-41.7C64.9,-41.7,65.9,-41.4,66.8,-40.9L63.8,-46.1" stroke-linecap="round" fill="#236ea1"/></g><g id="shape480" transform="translate(179.88,272.69)"><path stroke="#236ea1" d="M0,0L0,-89.1L-50.4,-89.1L-50.4,-116.7" fill="none"/><path stroke-width="1" stroke="#236ea1" d="M-50.4,-121.1L-53.4,-115.9C-52.5,-116.4,-51.5,-116.7,-50.4,-116.7C-49.3,-116.7,-48.3,-116.4,-47.4,-115.9L-50.4,-121.1" stroke-linecap="round" fill="#236ea1"/></g><g id="shape481" transform="translate(265.97,197.75)"><path stroke="#236ea1" d="M0,0L0,-14.1L68.4,-14.1L68.4,-41.7" fill="none"/><path stroke-width="1" stroke="#236ea1" d="M68.4,-46.1L65.4,-40.9C66.3,-41.4,67.3,-41.7,68.4,-41.7C69.5,-41.7,70.5,-41.4,71.4,-40.9L68.4,-46.1" stroke-linecap="round" fill="#236ea1"/></g><g id="shape482" transform="translate(402.8,197.75)"><path stroke="#236ea1" d="M0,0L0,-14.1L-68.4,-14.1L-68.4,-41.7" fill="none"/><path stroke-width="1" stroke="#236ea1" d="M-68.4,-46.1L-71.4,-40.9C-70.5,-41.4,-69.5,-41.7,-68.4,-41.7C-67.3,-41.7,-66.3,-41.4,-65.4,-40.9L-68.4,-46.1" stroke-linecap="round" fill="#236ea1"/></g><g id="shape483" transform="translate(129.49,103.2)"><path stroke="#236ea1" d="M0,0L0,-22.8L204.9,-22.8L204.9,-50.4" fill="none"/><path stroke-width="1" stroke="#236ea1" d="M204.9,-54.8L201.9,-49.6C202.8,-50.1,203.8,-50.4,204.9,-50.4C206,-50.4,207,-50.1,207.9,-49.6L204.9,-54.8" stroke-linecap="round" fill="#236ea1"/></g><g id="shape484" transform="translate(676.45,197.75)"><path stroke="#236ea1" d="M0,0L0,-117.3L-342.1,-117.3L-342.1,-144.9" fill="none"/><path stroke-width="1" stroke="#236ea1" d="M-342.1,-149.3L-345.1,-144.1C-344.2,-144.6,-343.2,-144.9,-342.1,-144.9C-341,-144.9,-340,-144.6,-339.1,-144.1L-342.1,-149.3" stroke-linecap="round" fill="#236ea1"/></g><g id="shape485" transform="translate(539.28,103.2)"><path stroke="#236ea1" d="M0,0L0,-22.8L-204.9,-22.8L-204.9,-50.4" fill="none"/><path stroke-width="1" stroke="#236ea1" d="M-204.9,-54.8L-207.9,-49.6C-207,-50.1,-206,-50.4,-204.9,-50.4C-203.8,-50.4,-202.8,-50.1,-201.9,-49.6L-204.9,-54.8" stroke-linecap="round" fill="#236ea1"/></g><g id="shape486" transform="translate(813.28,197.75)"><path stroke="#236ea1" d="M0,0L0,-14.1L68.4,-14.1L68.4,-41.7" fill="none"/><path stroke-width="1" stroke="#236ea1" d="M68.4,-46.1L65.4,-40.9C66.3,-41.4,67.3,-41.7,68.4,-41.7C69.5,-41.7,70.5,-41.4,71.4,-40.9L68.4,-46.1" stroke-linecap="round" fill="#236ea1"/></g><g id="shape487" transform="translate(950.11,197.75)"><path stroke="#236ea1" d="M0,0L0,-14.1L-68.4,-14.1L-68.4,-41.7" fill="none"/><path stroke-width="1" stroke="#236ea1" d="M-68.4,-46.1L-71.4,-40.9C-70.5,-41.4,-69.5,-41.7,-68.4,-41.7C-67.3,-41.7,-66.3,-41.4,-65.4,-40.9L-68.4,-46.1" stroke-linecap="round" fill="#236ea1"/></g></g></g></svg>